/* XPM */
static char *result[] = {
/* columns rows colors chars-per-pixel */
"65 65 230 2 ",
"   c #1E1B08",
".  c #1E1C08",
"X  c #22220A",
"o  c #26220A",
"O  c #2E2E0F",
"+  c #403F16",
"@  c #504C1A",
"#  c #63521B",
"$  c #535B2D",
"%  c #7E532E",
"&  c #67612E",
"*  c #716E38",
"=  c #376674",
"-  c #556949",
";  c #6E7249",
":  c #687E5E",
">  c #4B7668",
",  c #547E6D",
"<  c #63676E",
"1  c #89511C",
"2  c #9A5F2A",
"3  c #80682D",
"4  c #976120",
"5  c #996726",
"6  c #9C6B30",
"7  c #A16824",
"8  c #AA6E28",
"9  c #B76B26",
"0  c #A07328",
"q  c #A07B2C",
"w  c #B87529",
"e  c #BC7D2C",
"r  c #A17039",
"t  c #B47839",
"y  c #8A6C4A",
"u  c #A87A42",
"i  c #758046",
"p  c #5D846C",
"a  c #60896D",
"s  c #6A9475",
"d  c #759D7F",
"f  c #A4852F",
"g  c #A68F33",
"h  c #A0823F",
"j  c #A69F39",
"k  c #B69030",
"l  c #B79032",
"z  c #BA9231",
"x  c #B9A43A",
"c  c #BFB93E",
"v  c #C28330",
"b  c #C58933",
"n  c #C79533",
"m  c #C09635",
"M  c #C29B34",
"N  c #C39F37",
"B  c #C79F36",
"V  c #CD9138",
"C  c #C79E38",
"Z  c #D8973C",
"A  c #E88734",
"S  c #E08D37",
"D  c #E98F37",
"F  c #E2973B",
"G  c #C6A537",
"H  c #C0A33D",
"J  c #C7AA38",
"K  c #C7AA3A",
"L  c #DBA33D",
"P  c #D2AA3D",
"I  c #CAB43B",
"U  c #D1B73F",
"Y  c #F1A93D",
"T  c #968443",
"R  c #AA834D",
"E  c #BD8848",
"W  c #AF8754",
"Q  c #A99757",
"!  c #BE955B",
"~  c #BBAC45",
"^  c #B3B642",
"/  c #A1A154",
"(  c #BDB150",
")  c #BFB75B",
"_  c #95816A",
"`  c #879C65",
"'  c #9D9F6C",
"]  c #829C7C",
"[  c #909F75",
"{  c #969A7D",
"}  c #96A46B",
"|  c #B5AF77",
" . c #CF9740",
".. c #C5914A",
"X. c #D19D44",
"o. c #C69A5C",
"O. c #E39D46",
"+. c #C3A045",
"@. c #D0AF41",
"#. c #D4AE47",
"$. c #D5A54F",
"%. c #CDBD40",
"&. c #C5B04D",
"*. c #C2B64E",
"=. c #D2B34B",
"-. c #DDA952",
";. c #CBBD57",
":. c #D5B754",
">. c #DCB351",
",. c #D9BE57",
"<. c #E8AC4D",
"1. c #E9A054",
"2. c #E9AF5A",
"3. c #CBA467",
"4. c #CABC67",
"5. c #D7B261",
"6. c #D6B16C",
"7. c #D9BD6A",
"8. c #C7B275",
"9. c #D3B57E",
"0. c #DBBF7A",
"q. c #E1B460",
"w. c #E6BC66",
"e. c #EDBF67",
"r. c #E9B06E",
"t. c #BCD646",
"y. c #BCE752",
"u. c #C3C441",
"i. c #C5CE48",
"p. c #DDC445",
"a. c #DDC15B",
"s. c #C7DA56",
"d. c #F3C546",
"f. c #EEC953",
"g. c #E2D153",
"h. c #EBE458",
"j. c #CFC46A",
"k. c #C5C67D",
"l. c #D3DC73",
"z. c #E9D26C",
"x. c #F1D161",
"c. c #EBCE7D",
"v. c #F0C177",
"b. c #F9E264",
"n. c #F6E06E",
"m. c #FAE976",
"M. c #326B8E",
"N. c #40758E",
"B. c #4B8089",
"V. c #598582",
"C. c #7CA684",
"Z. c #79A89A",
"A. c #4C86A8",
"S. c #5F94A2",
"D. c #5391AE",
"F. c #5A90B2",
"G. c #619ABC",
"H. c #73ACA1",
"J. c #6AABB3",
"K. c #75A8BB",
"L. c #6EA9C0",
"P. c #6DA7CD",
"I. c #7BB2CA",
"U. c #76B1D5",
"Y. c #7FBDE5",
"T. c #818C8C",
"R. c #88A980",
"E. c #87A791",
"W. c #A1AD83",
"Q. c #B9AE82",
"!. c #A4B99D",
"~. c #AEBF9B",
"^. c #B3BF9C",
"/. c #94B3A0",
"(. c #83BDB4",
"). c #A3BFAC",
"_. c #D5B88C",
"`. c #A1C0AA",
"'. c #BAC7B5",
"]. c #DDC586",
"[. c #C1C195",
"{. c #DCC39D",
"}. c #E2CB8E",
"|. c #F2CD8E",
" X c #E3D988",
".X c #F2DC8C",
"XX c #E7DC9B",
"oX c #F8EB85",
"OX c #F5EC99",
"+X c #CCCFAA",
"@X c #E2CCA6",
"#X c #E4D0AF",
"$X c #EBDAAA",
"%X c #F5DAA7",
"&X c #EBE2AE",
"*X c #F8E6BC",
"=X c #8EB3C0",
"-X c #81BAD0",
";X c #87BBD6",
":X c #91C9CA",
">X c #87C3D3",
",X c #8EC3D8",
"<X c #97C6DA",
"1X c #9DCFDF",
"2X c #95D0DB",
"3X c #97D4DA",
"4X c #A7D2C6",
"5X c #BCD5C0",
"6X c #A7DFD6",
"7X c #B6E3D7",
"8X c #8ED2F2",
"9X c #A7CEE1",
"0X c #A3DAEC",
"qX c #B8D6E1",
"wX c #B0E6ED",
"eX c #BFE3EB",
"rX c #B1EAF9",
"tX c #BBF1F9",
"yX c #DDEBD6",
"uX c #C7F1D6",
"iX c #DCFED2",
"pX c #D3FCDB",
"aX c #E3E2C2",
"sX c #FBEECE",
"dX c #CEFBE6",
"fX c #C5F4F0",
"gX c #C2F4FB",
"hX c #CDFBFD",
"jX c #FDF7E7",
"kX c None",
/* pixels */
"kXkXkXkXkXkXkXkXkXkXkXkXkXkXkXkXkXkXkXkXkXkXkXkXkXkXkXkXkXkXk kXkXkXkXkXkXkXkXkXkXkXkXkXkXkXkXkXkXkXkXkXkXkXkXkXkXkXkXkXkXkXkXkXkX",
"kXkXkXkXkXkXkXkXkXkXkXkXkXkXkXkXkXkXkXkXkXkXkXN kXkXkXkXkXC I z kXkXkXkXkXkXkXkXkXkXkXkXkXkXkXkXkXkXkXkXkXkXkXkXkXkXkXkXkXkXkXkXkX",
"kXkXkXkXkXkXkXkXkXkXkXkXkXkXkXkXkXkXkXkXkXkXJ I z kXkXkXkXJ %.C kXkXkXkXkXkXkXkXkXkXkXkXkXkXkXkXkXkXkXkXkXkXkXkXkXkXkXkXkXkXkXkXkX",
"kXkXkXkXkXkXkXkXkXkXkXkXkXkXkXkXkXkXkXkXkXkXk M kXkXkXkXkXk C kXkXkXkXkXkXkXkXkXkXkXkXkXkXkXkXkXkXkXkXkXkXkXkXkXkXkXkXkXkXkXkXkXkX",
"kXkXkXkXkXkXkXkXkXkXkXkXkXkXkXkXkXkXkXkXkXkXkXkXo o . . . o     kXkXK I kXkXkXkXkXkXkXkXkXkXkXkXkXkXkXkXkXkXkXkXkXkXkXkXkXkXkXkXkX",
"kXkXkXkXkXkXkXkXkXkXkXkXkXkXkXkXkXkXkXkXkX  . X X X X O O O O O . & x #.kXkXkXkXkXkXkXkXkXkXkXkXkXkXkXkXkXkXkXkXkXkXkXkXkXkXkXkXkX",
"kXkXkXkXkXkXkXkXkXkXkXkXkXkXkXkXkXkXkXkXo X X O O + + + + + + + + @ @ k kXkXkXkXkXkXkXkXkXkXkXkXkXkXkXkXkXkXkXkXkXkXkXkXkXkXkXkXkX",
"kXkXkXkXkXkXkXkXkXkXkXkXkXkXkXkXkXkXkXkXo X O + + @ @ $ - - - - - - - & kXkXkXkXkXkXkXkXkXkXkXkXkXkXkXkXkXkXkXkXkXkXkXkXkXkXkXkXkX",
"kXkXkXkXkXkXkXkXkXkXkXkXkXkXkXkXkXkXkXH x @ + $ : Z.:X2XwXfXgXtXrXrX0X8X-XL.D.kXkXkXkXkXkXkXkXkXkXkXkXkXkXkXkXkXkXkXkXkXkXkXkXkXkX",
"kXkXkXkXkXkXkXkXkXkXkXkXkXkXkXkXkXkXkXJ %.` /.4XuXpXpXdXdXdXfXtXtXrXrXwXgX5X4XY.U.D.kXkXkXkXkXkXkXkXkXkXkXkXkXkXkXkXkXkXkXkXkXkXkX",
"kXkXkXkXkXkXkXkXkXkXkXkXkXkXkXkXkXkXkXkXH 6XpXiXiXiXpXpXdXfXfXtXhXgXrX+XwX7X6X8X8XY.G.kXkXkXkXkXkXkXkXkXkXkXkXkXkXkXkXkXkXkXkXkXkX",
"kXkXkXkXkXkXkXkXkXkXkXkXkXkXkXkXkXkXkXkX:XpXiXiXiXpX7X7XeXgXgXtXtXrXwXz.l.5X5X8XU.Y.Y.F.kXkXkXkXkXkXkXkXkXkXkXkXkXkXkXkXkXkXkXkXkX",
"kXkXkXkXkXkXkXkXkXkXkXkXkXkXkXz kXkXkXkX6XpXiXiXdX2X,XeXhXgXgXrX1X[.g.h.h.g.~.0XP.P.;XG.kXkXkXkXkXkXkXkXkXkXkXkXkXkXkXkXkXkXkXkXkX",
"kXkXkXkXkXkXkXkXkXkXkXkXkXkXkXkXkXkXkXkX:XpXpXpXhX2X,XwXtXgXeX1X0X4Xj.h.h.j.,X<XG.P.P.A.kXkXkXkXkXkXkXkXkXkXkXkXkXkXkXkXkXkXkXkXkX",
"kXkXkXkXkXkXkXkXkXkXkXkXkXkXkXkXkXkXkXkXJ.6XpXdXtX2X-X<X1XqXeX1X,X;X~.g.g.j.:XG.P.P.G.M.kXkXkXkXkXkXkXkXkXkXkXkXkXkXkXkXkXkXkXkXkX",
"kXkXkXkXkXkXkXkXkXkXkXkXkXkXkXkXkXkXkXkXkXkX:XfXwXqX-X<XqX<X<X-X-X;X[.'.;X=XS.U.P.A.M.kXkXkXkXkXkXkXkXkXkXkXkXkXkXkXkXkXkXkXkXkXkX",
"kXkXkXkXkXkXkXkXkXkXkXkXkXkXkXkXkXkXkXkXkXkXkXI.wX,X2X,XqX1X1XI.;X;X1X,X-XP.G.9XA.kXkXkXkXkXkXkXkXkXkXkXkXkXkXkXkXkXkXkXkXkXkXkXkX",
"kXkXkXkXkXkXkXkXkXkXkXkXkXkXkXkXJ kXkXkXkXkXkXkX2X-X1X2X,X<X,X-X;X,X;X,X1XP.P.G.kXkXkXkXkXkXkXkXkXkXkXkXkXkXkXkXkXkXkXkXkXkXkXkXkX",
"kXkXkXkXkXkXkXkXkXkXkXkXkXkXkXkXG kXkXkXkXkXkXkXQ.-X<X2X,X9X-X;X<X<XG.,X9XP.U.< kXkXkXkXkXkXkXkXkXkXkXkXkXkXkXkXkXkXkXkXkXkXkXkXkX",
"kXkXkXkXkXkXkXkXkXkXkXkXkXkXkXkXkXkXkXkXkXkXkXkX..u W./.=X9X-X,X<X9XI.K.T.: % % kXkXkXkXkXkXkXkXkXkXkXkXkXkXkXkXkXkXkXkXkXkXkXkXkX",
"kXkXkXkXkXkXkXkXkXkXkXkXkXkXkXkXkXkXkXkXkXkXkX>X{ E E u W R _ _ _ _ y y % 1 1 T.L.kXkXkXkXkXkXkXkXkXkXkXkXkXkXkXkXkXkXkXkXkXkXkXkX",
"kXkXkXkXkXkXkXkXkXkXkXkXkXkXkXC J J kXkX3XwXgXrX2X=XT._ R r u 6 2 2 2 2 r W 3.qX9X-XI.kXkXkXkXkXkXkXkXkXkXkXkXkXkXkXkXkXkXkXkXkXkX",
"kXkXkXkXkXkXkXkXkXkXkXkXkXkXkXG %.%.) `.hXgXrX2XwX-XP.P.K./.!.E.T.y t E E E o.'.=X;X9X;XD.kXkXkXkXkXkXkXkXkXkXkXkXkXkXkXkXkXkXkXkX",
"kXkXkXkXkXkXkXkXkXkXkXkXkXkXkXG U I ` B.eX1X-XwX<X,XI.2X;XfXgXrXY.T...2 8 t E 9.K.I.U.N.= kXkXkXkXkXkXkXkXkXkXkXkXkXkXkXkXkXkXkXkX",
"kXkXkXkXkXkXkXkXkXkXkXkXkXkXkXz N C ] = :XK.B.K.I.9X;X0X-X1X2X,XU.T.o.t E E E 3.'.K.G.= M.kXkXkXkXkXkXkXkXkXkXkXkXkXkXkXkXkXkXkXkX",
"kXkXkXkXkXkXkXkXkXkXkXkXkXkXkXkXkXkXkXD.S.;XS.= B.K.I.wXS.N.B.> = V.o.E E E v $.0.'.A.kXkXkXkXkXkXkXkXkXkXkXkXkXkXkXkXkXkXkXkXkXkX",
"kXkXkXkXkXkXkXkXkXkXkXkXkXkXkXkXkXkXkXkXJ.K.I.G.B.B.K.rXU.G.B.> N.S.3.o..... .$.5.}.&XkXkXkXkXkXkXkXkXkXkXkXkXkXkXkXkXkXkXkXkXkXkX",
"kXkXkXkXkXkXkXkXkXkXkXkXkXkXkXkXkXkXkXkXkXkXJ.L.S.A.G.,XG.B.> > = B.T.3.3.$.V -.q.2.z..XXX$XkXkXkXkXkXkXkXkXkXkXkXkXkXkXkXkXkXkXkX",
"kXkXkXkXkXkXkXkXkXkXkXkXkXkXkXkXkXkXkXkXkXkXkXkXV.V.S.Z.V., a a , , a 8.6.5.$.-.<.w.e.z.n..X}.$XkXkXkXkXkXkXkXkXkXkXkXkXkXkXkXkXkX",
"kXkXkXkXkXkXkXkXkXkXkXkXkXkXkXkXkXkXkXN I kXkXH.d E././.C.d s s s s s W.0.0.7.2.c.c.e.<.x.n.n.n.n.x.x.a.kXkXkXkXkXkXkXkXkXkXkXkXkX",
"kXkXkXkXkXkXkXkXkXkXkXkXkXkXkXkXkXkXkXkXkXkXJ.Z.E.!.!./.C.C.C.d s s s d [.].c.w.e.e.<.e.<.n.n.n.b.b.b.,.kXkXkXkXkXkXkXkXkXkXkXkXkX",
"kXkXkXkXkXkXkXkXkXkXkXkXkXkXkXkXkXkXkXkXkXkXZ.C./.~.4.W.} R.C.C.s s s s d +X X Xc.2.w.-.w.L  .f.b.b.b.#.kXkXkXkXkXkXkXkXkXkXkXkXkX",
"kXkXkXkXkXkXkXkXkXkXkXkXkXkXkXkXkXkXkXkXkXH.C.E.~.k.g.g.) R.C.C.d s s ` d E.+X.X.X.Xe.w.-.x.x.$.$.b.f.C kXkXkXkXkXkXkXkXkXkXkXkXkX",
"kXkXkXkXkXkXkXkXkXkXkXkXkXkXkXkXkXkXkXkXkXZ.E.`.[.g.h.g.) R.C.C.d ` ` *.` s d aXOXOX.Xw.-.n.$.$.$.$. .kXkXkXkXkXkXkXkXkXkXkXkXkXkX",
"kXkXkXkXkXkXkXkXkXkXkXkXkXkXkXkXkXkXkXkXZ.E.`.'.5X'.a.j.| W.R.R.C.` %.g.;.} ` R.aXOXOXoX$.b >.>.t  .f.kXkXkXkXkXkXkXkXkXkXkXkXkXkX",
"kXkXkXkXkXkXkXkXkXkXkXkXkXkXkXkXkXkXkX(.E./.'.5X5X'.[.~.!.W.;.p.} } U g.*.} ) p./ +XOXoXoXz.m.t $.b.>.kXkXkXkXkXkXkXkXkXkXkXkXkXkX",
"kXkXkXkXkXkXkXkXkXkXkXkXkXkXkXkXkXkXkXZ.E.'.+X+X@X9.9.0.7.7.a.a.:.:.:.=.&.) g.g./ ` | .XoXm.m.>.n.b.C kXkXkXkXkXkXkXkXkXkXkXkXkXkX",
"kXkXkXkXkXkXkXkXkXkXkXkXkXkXkXkXkXkX(.{ | _.{.{.@X}.}.}.}.].0.7.,.,.:.~ x ( :.;.;.) ( 4.c.m.m.m.m.b.N kXkXkXkXkXkXkXkXkXkXkXkXkXkX",
"kXkXkXkXkXkXkXkXkXkXkXkXkXkXkXkXkX).W t 9.{.@X#X@X}.}.].0.7.5.7.a.=.@.K x ~ ( ) ) ( ~ ( ) q.w.n.b.x.kXkXkXkXkXkXkXkXkXkXkXkXkXkXkX",
"kXkXkXkXkXkXkXkXkXkXkXkXkXkXkXkXkXW t o.{.{.@X#X_.9._.9.9.6.5.7.,.@.@.,.( ~ ~ 4.j.,.~ ~ *.f.p.T #. .kXkXkXkXkXkXkXkXkXkXkXkXkXkXkX",
"kXkXkXkXkXkXkXkXkXkXkXkXkXkXkXkX+XE E _.{.@X#X@X9.].}.}.}.].0.7.=.@.=.a.&.x x ) j.,.*.~ *.p.@.: kXkXkXkXkXkXkXkXkXkXkXkXkXkXkXkXkX",
"kXkXkXkXkXkXkXkXkXkXkXkXkXkXkXyXz.>.3.{.@X#X#X{.9.].].].].0.7.:.=.@.=.a.=.x x ( 4.;.;.( ( x q ; p kXkXkXkXkXkXkXkXkXkXkXkXkXkXkXkX",
"kXkXkXkXkXkXkXkXkXkXkXkXkXkXkXXXd.x..X.X|.@X#X_.9.9.9.9.9.0.7.:.=.@.@.:.a.&.~ ( 4.j.4.+.w 4 1 ; : ' J N kXkXkXkXkXkXkXkXkXkXkXkXkX",
"kXkXkXkXkXkXkXkXkXkXkXkXkXkX$Xx.f..XsXsX*X%Xc.q.5.6.6.6.6.6.5.:.=.@.P @.=.+.+.+.....E u 2 1 1 ; : ` U G kXkXkXkXkXkXkXkXkXkXkXkXkX",
"kXkXkXkXkXkXkXkXkXkXkXkXkXkX&Xd.f.*XjXjXjXjX*Xc.w.w.q.q.-.-.$.X.V V b b v e 8 7 7 u R R r 1 1 * a s 3 # kXkXH G z kXkXkXkXkXkXkXkX",
"kXkXkXkXkXkXkXkXkXkXkXkXkXkXc.d.x.sXjXjXjXjX%Xc.w.w.w.w.q.5.$.X.V b e e w w 7 4 4 u R R u 1 1 3 a a - X o kXK %.K k kXkXkXkXkXkXkX",
"kXkXkXkXkXkXkXkXkXkXkXkXkXyXx.d.c.sXsXjXjXsX|.v.w.w.w.q.q.5.$.X.V b e e w w 7 4 4 r W W W 2 1 1 : a : O X kXB K H kXkXkXkXkXkXkXkX",
"kXkXkXkXkXkXkXkXkXkXkXkXkX&Xf.Y .X*X*XsXsX*Xv.7.q.q.q.q.q.-.$.X.V b e e w w 8 4 4 r W W R r 1 1 ; a ` O X . z kXz kXkXkXkXkXkXkXkX",
"kXkXkXkXkXkXkXkXkXkXkXkXkXXXd.Y .X%X%X*X*X%Xq.8.5.2.2.2.-.-.X. .V b e e w w 8 4 4 6 R R R u 1 1 * : ` O X . kXkXkXkXkXkXkXkXkXkXkX",
"kXkXkXkXkXkXkXkXkXkXkXkXkX}.Y Y |.|.|.%X%X|.O.$.O.O.-.-.-.$.X. .b b e e w w 8 4 4 5 u u u r 1 1 % ; / + X . kXkXkXkXkXkXkXkXkXkXkX",
"kXkXkXkXkXkXkXkXkXkXkXkXkX9.Y Y v.v.v.|.|.r.D D S F O.O.O.Z Z V b v e e w w 8 4 4 5 u r r r 1 1 % * / O + g kXkXkXkXkXkXkXkXkXkXkX",
"kXkXkXkXkXkXkXkXkXkXkXkXkXQ.O.Y e.e.e.v.0.9.S A A S F O.O.Z Z V b v e e w w 8 4 4 5 r r 6 6 1 1 1 3 ^ O O & kXkXkXkXkXkXkXkXkXkXkX",
"kXkXkXkXkXkXkXkXkXkXkXkXkX^...S <.2.2.2.6.8.S A A A S F Z Z Z V V b v e e 9 9 4 4 5 r 6 6 2 1 1 5 K j O X   kXkXkXkXkXkXkXkXkXkXkX",
"kXkXkXkXkXkXkXkXkXkXkXkXkXkX3.S Z 1.1.1.1.1.A A S S Z L L P P P K B m m l e w 5 4 5 6 6 5 5 0 l e m * O   kXkXkXkXkXkXkXkXkXkXkXkX",
"kXkXkXkXkXkXkXkXkXkXkXkXkXkX^.O.D O.1.r.r.r.1.O.O.L P @.U %.%.%.c c c ~ x x g q q q f l m l 5 4 7 ( # kXkXz kXkXkXkXkXkXkXkXkXkXkX",
"kXkXkXkXkXkXkXkXkXkXkXkXkXkXkXQ.D D D D O.1.r.w.}.XXXX X Xl.l.l.s.s.i.i.u.c x j g g f 0 5 4 4 7 g $ 3 G J B kXkXkXkXkXkXkXkXkXkXkX",
"kXkXkXkXkXkXkXkXkXkXkXkXkXkXkXkX8.D A A D D F L P U %.i.s.s.y.y.y.y.t.t.u.^ j g f f q 5 4 4 4 g * O kXI %.I z kXkXkXkXkXkXkXkXkXkX",
"kXkXkXkXkXkXkXkXkXkXkXkXkXkXkXkXkX3.A A A D F L P U %.u.i.i.t.t.t.t.t.u.^ j j g f q 0 4 8 b h * O kXM K %.I M kXkXkXkXkXkXkXkXkXkX",
"kXkXkXkXkXkXkXkXkXkXkXkXkXkXkXkXkXkXQ.S A A D F P *.*.U %.%.u.u.u.u.c c j g g f q 0 e L p.p.i O o kXkXkXG N kXkXkXkXkXkXkXkXkXkXkX",
"kXkXkXkXkXkXkXkXkXkXkXkXkXkXkXkXkXkXkX' ! S A D X.) ( P P P P K K K K l f f q 0 0 7 6 U p.p.J kXkXkXkXkXkXkXkXkXkXkXkXkXkXkXkXkXkX",
"kXkXkXkXkXkXkXkXkXkXkXkXkXkXkXkXkXkXkXkXkX] Q ..Z +.+.Z Z Z B B B m m f q 0 0 8 6 h i K U U kXkXkXkXkXkXkXkXkXkXkXkXkXkXkXkXkXkXkX",
"kXkXkXkXkXkXkXkXkXkXkXkXkXkXkXkXkXkXkXkXkXkXkXkXkX] [ } Q Q Q R h h h y ; ; - T j J kXkXkXn kXkXkXkXkXkXkXkXkXkXkXkXkXkXkXkXkXkXkX",
"kXkXkXkXkXkXkXkXkXkXkXkXkXkXkXkXkXkXkXkXkXkXkXkXkXkXkXkXkXkXkXkXkXkXkXkXT @ kXkXU %.J kXkXkXkXkXkXkXkXkXkXkXkXkXkXkXkXkXkXkXkXkXkX",
"kXkXkXkXkXkXkXkXkXkXkXkXkXkXkXkXkXkXkXkXkXkXkXkXkXkXkXkXkXkXkXkXkXkXkXkXI k kXkXH C kXkXkXkXkXkXkXkXkXkXkXkXkXkXkXkXkXkXkXkXkXkXkX",
"kXkXkXkXkXkXkXkXkXkXkXkXkXkXkXkXkXkXkXkXkXkXkXkXkXkXkXkXkXkXkXkXkXkXkXkXH kXkXkXkXkXkXkXkXkXkXkXkXkXkXkXkXkXkXkXkXkXkXkXkXkXkXkXkX"
};
