/* XPM */
static char *_a78642b99644b10dcc4ae5d7baf57ad1gE6TvZ8Rj4u8vg2[] = {
/* columns rows colors chars-per-pixel */
"65 65 152 2 ",
"   c None",
".  c #535353",
"X  c gray33",
"o  c gray34",
"O  c #585858",
"+  c gray35",
"@  c #5B5B5B",
"#  c gray36",
"$  c #5D5D5D",
"%  c gray37",
"&  c #606060",
"*  c gray38",
"=  c #646464",
"-  c #656565",
";  c gray40",
":  c #676767",
">  c #686868",
",  c DimGray",
"<  c #6A6A6A",
"1  c gray42",
"2  c #6C6C6C",
"3  c #6D6D6D",
"4  c gray43",
"5  c #6F6F6F",
"6  c gray44",
"7  c #717171",
"8  c #727272",
"9  c gray45",
"0  c #747474",
"q  c gray46",
"w  c #767676",
"e  c #777777",
"r  c gray47",
"t  c #797979",
"y  c gray48",
"u  c #7B7B7B",
"i  c #7C7C7C",
"p  c gray49",
"a  c #7E7E7E",
"s  c gray50",
"d  c #808080",
"f  c #818181",
"g  c gray51",
"h  c #838383",
"j  c #848484",
"k  c gray52",
"l  c #868686",
"z  c gray53",
"x  c #888888",
"c  c #898989",
"v  c gray54",
"b  c #8B8B8B",
"n  c gray55",
"m  c #8D8D8D",
"M  c #8E8E8E",
"N  c gray56",
"B  c #909090",
"V  c gray57",
"C  c #929292",
"Z  c #939393",
"A  c gray58",
"S  c #959595",
"D  c gray59",
"F  c #979797",
"G  c #989898",
"H  c gray60",
"J  c #9A9A9A",
"K  c #9B9B9B",
"L  c gray61",
"P  c #9D9D9D",
"I  c gray62",
"U  c #9F9F9F",
"Y  c #A0A0A0",
"T  c gray63",
"R  c #A2A2A2",
"E  c gray64",
"W  c #A4A4A4",
"Q  c #A5A5A5",
"!  c gray65",
"~  c #A7A7A7",
"^  c gray66",
"/  c #A9A9A9",
"(  c #AAAAAA",
")  c gray67",
"_  c #ACACAC",
"`  c gray68",
"'  c #AEAEAE",
"]  c #AFAFAF",
"[  c gray69",
"{  c #B1B1B1",
"}  c #B2B2B2",
"|  c gray70",
" . c #B4B4B4",
".. c gray71",
"X. c #B6B6B6",
"o. c #B7B7B7",
"O. c gray72",
"+. c #B9B9B9",
"@. c gray73",
"#. c #BBBBBB",
"$. c #BCBCBC",
"%. c gray74",
"&. c gray",
"*. c gray75",
"=. c #C0C0C0",
"-. c #C1C1C1",
";. c gray76",
":. c #C3C3C3",
">. c gray77",
",. c #C5C5C5",
"<. c #C6C6C6",
"1. c gray78",
"2. c #C8C8C8",
"3. c gray79",
"4. c #CACACA",
"5. c #CBCBCB",
"6. c gray80",
"7. c #CDCDCD",
"8. c #CECECE",
"9. c gray81",
"0. c #D0D0D0",
"q. c gray82",
"w. c LightGray",
"e. c gray83",
"r. c #D5D5D5",
"t. c gray84",
"y. c #D7D7D7",
"u. c #D8D8D8",
"i. c #DADADA",
"p. c gray86",
"a. c gainsboro",
"s. c #DDDDDD",
"d. c gray87",
"f. c gray88",
"g. c #E1E1E1",
"h. c #E2E2E2",
"j. c gray89",
"k. c #E4E4E4",
"l. c gray90",
"z. c #E6E6E6",
"x. c #E7E7E7",
"c. c gray91",
"v. c #E9E9E9",
"b. c #EAEAEA",
"n. c gray92",
"m. c gray93",
"M. c #EEEEEE",
"N. c #EFEFEF",
"B. c gray94",
"V. c #F1F1F1",
"C. c #F3F3F3",
"Z. c gray97",
/* pixels */
"                                                                                                                                  ",
"                                                                                                                                  ",
"                                                        G B n n G                                                                 ",
"                                                    b n n B F F F G G                                                             ",
"                                                z a z               ) ! R                                                         ",
"                                              f e                        .R                                                       ",
"                                            f e                           $.!                                                     ",
"                                          b r                               =.!                                                   ",
"                                        F a                                   O.                                                  ",
"                                        B                                     1.'                                                 ",
"                                        n                                       '                                                 ",
"                                      ! n                                       ' U                                               ",
"                                      G n                                       ) B                                               ",
"                                      U F                                       G z                                               ",
"                                      U B                                       B f                                               ",
"                                      { G                                       f r                                               ",
"                                      =.U                                       r                                                 ",
"                                        '                         B n G       r <                                                 ",
"                                        =.!       B ! { $.O.! B b n R ! ) R ) <                                                   ",
"                                           .' 4 4 n       =.=.! n         { ) B                                                   ",
"                                            { z :         B R =.{         r U ' {                                                 ",
"                                            F ' )       G 6     {       6 <   1.)                                                 ",
"                                          b =    .R U R a        .R z e e       { G                                               ",
"                                          z       O.! F b n b z ) B a           $.n                                               ",
"                                          a           R b B n B ' B             $.n                                               ",
"                                          r           U <         n               n                                               ",
"                                          z            .f        .f              .b                                               ",
"                                          F           =.B       ) a             ! f                                               ",
"                                          $.n           ! a     F               B                                                 ",
"                                          7.R           ' z n ! b             G z                                                 ",
"                                            4.U           G G G           n B z                                                   ",
"                                              4.R b B U R ! U n n b a b b n b                                                     ",
"                                                1.{ b B F U     )  .$. .z f                                                       ",
"                                                   .z e             =.O.r 4                                                       ",
"                                                  $.f <             O.$.a #                                                       ",
"                                                  =.a :             =.=.b #                                                       ",
"                                                  1.r 4               4.F #                                                       ",
"                                                =.=.r 4               7.R :                                                       ",
"                                                =.$.e                 7.{ 6 =                                                     ",
"                                                4. .6                 4.=.r #                                                     ",
"                                                t.' 4                 =.4.f =                                                     ",
"                                                h.! :                   q.n #                                                     ",
"                                                l.R :                   q.G =                                                     ",
"                                                b.F =                   7.' : :                                                   ",
"                                                b.B =                   7.1.6 o                                                   ",
"                                                l.b #                   7.t.r .                                                   ",
"                                                l.f #                     h.z o                                                   ",
"                                                h.a #                     h.G @                                                   ",
"                                                i.e #                     a.) =                                                   ",
"                                              h.q.e #                     t.O.4 #                                                 ",
"                                              l.1.e :                     7.4.6 @                                                 ",
"                                              h.$.6 6                     7.i.a =                                                 ",
"                                              b.{ e 6                       h.n ! { ' z                                           ",
"                                              b.) z F n z                   h.U 7.h.i.B                                           ",
"                                              l.R n   i.)                   h. .7.m.h.U                                           ",
"                                              l.U     h.U                   h.7.=.C.l.!                                           ",
"                                              l.U z     B                   a.a. .Z.m.{ <                                         ",
"                                              h.G 6                         a.b.R   m.=.<                                         ",
"                                              i.G b b                         b.)     1.e                                         ",
"                                            m.i.G t.q.{ a                     b.{ a                                               ",
"                                            C.t.U     $.<                     l.$.4                                               ",
"                                            m.7.U     ! <                     h.7.e =                                             ",
"                                            m.7.F                             l.a.b @                                             ",
"                                              1.b                               t.G                                               ",
"                                                                                                                                  "
};
