/* XPM */
static char *result[] = {
/* columns rows colors chars-per-pixel */
"65 65 235 2 ",
"   c #030D2F",
".  c #041239",
"X  c #06153C",
"o  c #081343",
"O  c #071845",
"+  c #0A1B41",
"@  c #0B164C",
"#  c #081A4B",
"$  c #0C1F4A",
"%  c #061854",
"&  c #091E55",
"*  c #0F2449",
"=  c #0D2250",
"-  c #0B2257",
";  c #0E2756",
":  c #0E265B",
">  c #122C52",
",  c #142856",
"<  c #122A5A",
"1  c #102A5F",
"2  c #173257",
"3  c #13305A",
"4  c #17355C",
"5  c #0F2D62",
"6  c #0F2D6D",
"7  c #112F63",
"8  c #143363",
"9  c #163667",
"0  c #1B3D61",
"q  c #1B3B66",
"w  c #143268",
"e  c #14366C",
"r  c #163A6E",
"t  c #1B3F6C",
"y  c #143472",
"u  c #133577",
"i  c #173A74",
"p  c #183C77",
"a  c #15387C",
"s  c #183D7E",
"d  c #1E4372",
"f  c #1E4776",
"g  c #1C4079",
"h  c #1C447F",
"j  c #204168",
"k  c #24486C",
"l  c #274C72",
"z  c #20497B",
"x  c #264D78",
"c  c #224D7E",
"v  c #265076",
"b  c #2A5274",
"n  c #2B527A",
"m  c #29507F",
"M  c #2D577E",
"N  c #34627D",
"B  c #49637C",
"V  c #173D81",
"C  c #1C4180",
"Z  c #1D4781",
"A  c #194184",
"S  c #1F498A",
"D  c #1E4C89",
"F  c #204584",
"G  c #204687",
"H  c #234E83",
"J  c #264F80",
"K  c #204884",
"L  c #214A87",
"P  c #234E89",
"I  c #204D8C",
"U  c #265185",
"Y  c #2C5481",
"T  c #24508C",
"R  c #24538C",
"E  c #26578F",
"W  c #2A5488",
"Q  c #2E5788",
"!  c #2F5B8D",
"~  c #325E80",
"^  c #335C85",
"/  c #285390",
"(  c #2B5791",
")  c #275990",
"_  c #275C91",
"`  c #2E5A91",
"'  c #2F5E90",
"]  c #305E96",
"[  c #366282",
"{  c #376686",
"}  c #35628F",
"|  c #3B658A",
" . c #3B6B89",
".. c #39698E",
"X. c #3F708E",
"o. c #3C6B95",
"O. c #31609B",
"+. c #37649A",
"@. c #39669A",
"#. c #3B6E9E",
"$. c #3F7297",
"%. c #3F739C",
"&. c #3E719F",
"*. c #3161A0",
"=. c #3764A0",
"-. c #3465A5",
";. c #376DA7",
":. c #3869A3",
">. c #3A6CA0",
",. c #3B6DA2",
"<. c #3E6FA3",
"1. c #3C6AA7",
"2. c #3E73A5",
"3. c #3A72AB",
"4. c #3F79B1",
"5. c #5F768C",
"6. c #4D6E94",
"7. c #427593",
"8. c #41769C",
"9. c #457A98",
"0. c #467D9D",
"q. c #497F9C",
"w. c #50799B",
"e. c #617186",
"r. c #4271A3",
"t. c #4279A3",
"y. c #4A7DA3",
"u. c #4373A8",
"i. c #4077AB",
"p. c #447BA8",
"a. c #4679B0",
"s. c #487EB2",
"d. c #427BB9",
"f. c #417BBA",
"g. c #447FB9",
"h. c #4C8498",
"j. c #4D85A3",
"k. c #4981A7",
"l. c #4480AD",
"z. c #4F81AF",
"x. c #4E8AAA",
"c. c #4C89AD",
"v. c #5F80A0",
"b. c #5696AB",
"n. c #5792AE",
"m. c #599BAB",
"M. c #5B9CAA",
"N. c #4882B3",
"B. c #4985B7",
"V. c #4C87B7",
"C. c #4C8DB3",
"Z. c #4D8DB6",
"A. c #4782B8",
"S. c #4681BC",
"D. c #4D82B9",
"F. c #4D87BA",
"G. c #518BB5",
"H. c #5889B0",
"J. c #538FB8",
"K. c #558FBB",
"L. c #5998B2",
"P. c #5C9CB1",
"I. c #5A98B6",
"U. c #5F9BB4",
"Y. c #5793B9",
"T. c #5C95B9",
"R. c #7692A9",
"E. c #689DB4",
"W. c #639BBF",
"Q. c #659EBC",
"!. c #739EB6",
"~. c #65A0BF",
"^. c #7FA3B6",
"/. c #73ABBF",
"(. c #4F85C1",
"). c #548BC0",
"_. c #5592C7",
"`. c #5894C0",
"'. c #5F93C4",
"]. c #5F98CC",
"[. c #6698C8",
"{. c #779FCA",
"}. c #5FA0D3",
"|. c #6FA5C0",
" X c #6AA0C5",
".X c #6FAACD",
"XX c #6EA5D2",
"oX c #67AADF",
"OX c #78A3D2",
"+X c #7EB3D9",
"@X c #6BAEE1",
"#X c #79B5E8",
"$X c #9C9EA8",
"%X c #8CA9B9",
"&X c #94A4B1",
"*X c #81B0BC",
"=X c #A3AEB7",
"-X c #B4B4B7",
";X c #B8B3B5",
":X c #CFBCBD",
">X c #D8BDB7",
",X c #80A7CE",
"<X c #93B2C4",
"1X c #9DB9CC",
"2X c #91ABDA",
"3X c #8AB1D4",
"4X c #90BBDA",
"5X c #A4B9DF",
"6X c #B8BDD6",
"7X c #98B6E2",
"8X c #97B8E3",
"9X c #C5BDC9",
"0X c #A6C3D5",
"qX c #BED0DE",
"wX c #8BC8EF",
"eX c #97C1E1",
"rX c #96D5F9",
"tX c #A2C6E3",
"yX c #A2C1E8",
"uX c #ABCFEC",
"iX c #B9D4ED",
"pX c #D2C8C6",
"aX c #C5C9D2",
"sX c #C3D3E4",
"dX c #CBD8E4",
"fX c #C1DDEF",
"gX c #CDDDE9",
"hX c #CBDEEC",
"jX c #C9E5F4",
"kX c #D7EEF6",
"lX c #D0EDF8",
"zX c #E3F8FA",
"xX c #E6FBFC",
"cX c #E6FBFD",
"vX c None",
/* pixels */
"vXvXvXvXvXvXvXvXvXvXvXvXvXvXvXvXvXvXvXvXvXvXvXvXvXvXvXvXsXgXdXvXvXvXvXvXdXdXsXsXvXvXvXvXvXvXvXvXvXvXvXvXvXvXvXvXvXvXvXvXvXvXvXvXvX",
"vXvXvXvXvXvXvXvXvXvXvXvXvXvXvXvXvXvXvXvXvXvXvXvXvXvXhXqX6XaXaXaXaXaXaXaXaXaXqXqXvXvXvXvXvXvXvXvXvXvXvXvXvXvXvXvXvXvXvXvXvXvXvXvXvX",
"vXvXvXvXvXvXvXvXvXvXvXvXvXvXvXvXvXvXvXvXvXkXgXhXfXfXR.B 5.<X*X*X*X*X*X*X%X<X&XqXcXcXcXxXzXkXvXvXvXvXvXvXvXvXvXvXvXvXvXvXvXvXvXvXvX",
"vXvXvXvXvXvXvXvXvXvXvXvXvXvXvXvXvXsX5XyXyXyX8X8X8X8X[ v././././././././././.X.1XjXfXfXiXiXiXuXyX7XvXvXvXvXvXvXvXvXvXvXvXvXvXvXvXvX",
"vXvXvXvXvXvXvXvXvXvXvXvXvXvXvX2X5X5X6X6X9X9X9X9X9X9XB E.|.|.|./.7.|././.|.|. .-XpXpXpXpXpX9X9X6X6X6X:XvXvXvXvXvXvXvXvXvXvXvXvXvXvX",
"vXvXvXvXvXvXvXvXvXvX>X:X;X=X=X=X%X^.!.E.E.U.P.P.P.P.{ H. X|.!./.k E.!.|.|.|.{ P.P.U.P.U.P.P.P.U.E.!.^.^.5.R.=X-X;X;X:X>XvXvXvXvXvX",
"vXvXvXvXvX>X;X;X&X^.^.!.E.U.I.I.I.I.I.I.I.I.I.I.I.I. .j. Xj. .w.b w. .9.|.|.{ I.I.U.I.I.I.I.I.I.I.I.L.n.n.I.I.U.E.!.^.%X=X-X;Xe.vX",
"e.$X=X^.!.W.Y.T.T.Y.Y.Y.Y.Y.Y.Y.Y.Y.T.Y.Y.Y.Y.Y.Y.Y.$.7. X XW.H.y.H.W. X XW.{ Y.Y.Y.Y.Y.Y.Y.Y.Y.Y.n.T.T.T.W.Y.Y.Y.Y.Y.Y.Y.Y.$.v vX",
"v 8.`.`.K.K.K.Y.K.K.K.K.J.K.K.K.K.K.K.K.K.K.K.K.K.K.t.{ [.[.[.[.[.[.[.[.[.H...K.K.K.K.K.K.K.K.K.z.T.`.K.K.K.K.K.K.K.K.K.K.K.o.v vX",
"M o.D.D.D.D.s.s.s.s.u.y.H.s.a.a.a.a.a.a.a.a.a.a.a.i.r.~ '.[.[.[.[.[.[.[.[.y.} u.u.u.u.u.u.r.! q 6.z.u.u.u.u.u.u.u.u.u.u.u.u.^ J vX",
"j & % % % % % % % % % % % % % % % % % % % % % % % % % j 0 4 0 0 j j 0 4 2 0 : % % % % % % % % % % % % % % % % % : : : < < 3 < , vX",
"o # & b l l k j 8 % % % % % % % % % % % % % & & & & & - - - - - - - - - - - & & & & & - & & & & & & & & & & & & N n b x x x l , vX",
", # = N N N N N b - q j j l x m m x l j j j j j j j j j j j j j j j j j j j j j j j j j j k l n m Y n l k j q - N b k k d i l vXvX",
"vX@ = m @.d d l l ; k ! r.a.u.r.r.u.u.u.u.r.@.} ^ l k k k k k 2 * 2 k k k k k l ^ } @.r.u.u.u.r.r.r.r.r.r.! j : 9. .{  .{ z h.vXvX",
"vXo , } c { n b l ; j j N y.k.N N N N N N [ { | > j b b 0 *           * j b b j > | X.[ N N N N N N N N N j q y P.j.9.9.$.H M.vXvX",
"vXvXvX! W 9.7.7. .5 j q ~ [ { {  . .X.7.9.q.[ 2 n X.~ 4 + . . . . . . . + 0 [ X.b 2  .q.7.X. . .{ [ ~ ~ ~ q q y P.j.9.9.$.H m.vXvX",
"vXvXvX! Q 9.9.q.0.y k c j.x.n.n.n.L.I.I.U.7.j ~ { 0 + . . . . + + * + . + . + k  .~ j 9.L.I.L.n.n.x.j.q.7.d t y P.j.8.8.$.H m.vXvX",
"vXvXvX! Q 9.9.0.0.y k W I.I.I.I.I.I.I.I.y.q ^ ~ * . . . . + 2 q $ 3 q > o.> . . > | ^ q y.I.I.I.I.I.I.I.I.W d y P.j.8.8.$.U b.vXvX",
"vXvXvX! ! 8.8.0.0.u l W J.Y.Y.Y.Y.Y.J.} d | 4 X . . . + 4 q < 1 $ 1 1 5 d 4 + . . X j ..d } J.Y.Y.T.Y.Y.J.W l y L.j.8.8.$.U b.vXvX",
"vXvXvX! ! 8.8.0.y.i x ! z.K.K.K.K.V.Q n | * . . . . > j 1 # O 1 $ 1 - - 1 1 q * X . . 2 ..n ^ V.K.'.`.K.s.! x y L.j.8.8.%.U b.vXvX",
"vXvXvX! ] y.8.k.y.i n } u.K.).F.&.Y ^ n * . . . + 4 8 = O # & 1 $ 1 - & & - 1 8 3 + . . > ~ ^ Y &.F.).).,.} x y n.k.8.8.%.W x.vXvX",
"vXvXvX! @.H.%.k.y.i n o.:.).s.W Y o.~ + . . . * t 7 O O = 4 & 1 $ 1 - ; 4 & & 1 7 9 * . . * ..o.Y Q s.(.O.o.x u n.k.p.XXXX@.x.vXvX",
"vXvXvX! ` &.%.t.0.p &.y.] } m } $.^ + . . . > q ; O # 8 q 7 & 1 $ 1 - : 9 q : & : 5 9 > . . $ ..%.} m Q ` 8.x u  X+XwXrX+X@.x.vXvX",
"vXvXvX! ` &.&.t.t.p n $.} o.8.8.Y + . . X 4 8 = O ; 9 7 5 1 & 1 $ 1 - - 5 5 9 8 & - 1 9 3 + . $ ^ 8.8.o.u.8.^ ].rXrXrX#Xz.` x.vXvX",
"vXvXvX! ] &.&.t.t.p n 8.8.8.k.o.* . . X 3 w # O 1 9 5 5 5 1 & 1 = 1 - - 5 5 5 7 q - - 1 9 3 X . > o.8.8.y.8.z.#XrXwXXXp.#.` x.vXvX",
"vXvXvX` ] #.#.&.t.p n %.8.8.t.4 . . . < w = # 1 8 7 5 5 5 1 - 1 = 5 - - 7 5 5 5 7 9 : - 1 w < X X 0 %.8.8.8.r.(..XY.u.#.#.` x.vXvX",
"vXvXvX` ] #.#.2.t.p n %.8.8.n . . . = w = O 7 8 5 5 5 5 5 1 & 1 = 5 - - 5 5 5 7 7 7 9 : - 1 r = . . Y 8.8.8.Y C x.p.#.#.>.] k.vXvX",
"vXvXvX` O.r.,.2.t.g m %.%.} * . . + r = O 7 8 5 5 5 5 5 5 1 & 1 = 5 - - 7 5 8 9 7 9 8 9 - - 5 e $ . * } %.%.Y p x.p.>.>.>.] k.vXvX",
"vXvXvX` ] :.:.2.t.s m %.%.Q O . + 8 : # 7 8 5 5 7 5 7 7 w 7 : w < e 1 1 w w 7 7 5 5 5 5 9 : : 7 8 X . l %.&.Y p x.p.:.:.:.] k.vXvX",
"vXvXvX` O.,.:.2.t.s m #.&.! 1 + = w # : w w e r p g h Z Z h u C e F u u K Z Z h g i r e w w - 1 w $ # m &.&.Y p k.p.:.:.:.O.p.vXvX",
"vXvXvX` O.2.:.2.t.C m #.&.! e ; < : 1 h h K D D D D D D D Z a G i S a a D D D D D D D D K Z p 5 w ; 1 W &.&.Y s k.p.:.:.:.O.p.vXvX",
"vXvXvX` O.:.:.a.l.C m #.&.Q e 7 e u u K D D D D D D D D D h a G i S a a D D D D D D D D D D g a C w 7 W &.&.W g k.i.:.:.:.O.t.c.vX",
"vXvXvX] O.-.-.a.l.C m #.&.Q e w C s u Z D D D D D D D D D h a G i L a a D D D D D P D D D D p a G p e U &.&.Q s k.i.-.-.-.*.t.c.vX",
"vXvXvX] *.-.-.;.t.C m #.&.Q e w C V u Z D D D D D D D D D C a G p S a a T D D D D D D D D D p a G g e U &.&.Q C p.i.-.-.-.*.t.c.vX",
"vXvXc.] *.-.-.;.i.F m #.&.Q e e C V u r i i p p p p i i i y a G p S a u h i i i p p p p i r y a G g w U &.&.Q C p.i.-.-.-.*.2.G.vX",
"vXvXc.] *.-.-.;.i.F m #.#.W e e h V u u u u u u u u u u u u a S g S a a u u u u u u u u u u u a G g e U #.#.Q C p.i.-.-.-.*.2.G.vX",
"vXvXc.V.].].XX].p.F m #.#.W e e h V L ] ( ` ` ` ` ` ( ( / u.a.S g S s G ( ( ( ` ` ` ` ( ( ( P a G h 9 H #.#.Q C p.F.(.(.(.(.i.G.vX",
"G.Q.~.W.W.W.W.W.T.r.U #.#.W e e h V A S L F F F F F F F F F V G g S V C F F F F F F F F F F F s G h 9 H #.#.! ] T. X.X.X.X.X X~.Q.",
"_.Y.Y.Y.Y.Y.Y.Y.Y.p.U #.#.U e e h V C T T K G G G G G G G F a S g S V C G G G G G G G G G G F s G h 9 H #.#.` @.Y.Y.Y.Y.Y.Y.Y.Y.J.",
"vXG.+.! ! Q Q W m z m #.#.U e e h V C K F L G G G G L G G F a G g S V C G G G G G G G G G G F s S Z 8 c #.#.` d m m Y W Q Q Q M c.",
"vXvX' Q Y Y m x t 7 x #.#.U e e h V C L L L L L L L L L L F a 9 3 9 u C L L L L L L L L L L F V S Z 8 c #.,.Q 5 f m m m m m m v vX",
"vXvXG.V.V.V.p.l.O.h U ,.,.U r 9 h V C L L L L L L L L L L F a = * * y C L L L L L L L L L L F V S K 8 c ,.,.! 1 U } } } } @.@.<.vX",
"vXvX}.V.V.V.N.N.*.S W >.,.H e 9 h V C L L L L L L L L ( T F a ; = = y C L L L L L L L L L L K s S K 8 c ,.,.! p 3.V.V.V.V.V.`.oXvX",
"vXvX}.B.V.B.B.N.:.S W >.>.H r 9 h V C P P P P P P P P O.( F a 1 ; ; y C P P P P P P P P P P K V S L 8 z >.>.] F 3.B.B.B.B.B.`.@XvX",
"vXvX@XB.B.B.B.N.;.P W >.:.H r 8 h A C R P P P P P P P P P K a 5 1 1 u C P P P P P P P P P P K s S L 3 z :.:.] K 3.B.B.B.B.B.).}.vX",
"vXvX@XF.B.B.A.A.;.P W :.:.H r 8 h A h P P P P P P P P P P K a 6 5 5 u h P P P P P P P P P P K s S L 3 z :.:.] K ;.A.A.A.A.A.F.}.vX",
"vXvX@X).A.A.A.A.3.P ( :.:.c r 3 h A h T T T T T T T T T T K s y 6 6 a h T T T T T T T T T T K V S D 3 z :.:.] K ;.A.).F.A.A.A.}.vX",
"vXvXG.2.A.A.A.A.3.P ( :.:.c r 3 h A h ` R T T T T T T T T K V S K I V Z T T T T T T T T T T L s S D 3 f :.:.O.L ;.A.F.B.A.A.A._.vX",
"vXvXoXp.i.A.A.A.3.( ] :.:.c 9 3 h A h R R R R R R R R R R K V D K I V h R R R R R R R R R R L s S D 3 f :.:.O.L ;.A.A.A.A.A.A._.vX",
"vXvXoXA.2.g.g.g.3.O.:.:.:.c 9 3 h A h R R R R R R R R R R K V D K I A Z R R R R R R R R R R L s D P 3 f :.:.O.P ;.g.g.g.g.g.g.S.vX",
"vXvXoXg.i.m g.g.3.T ` :.:.c 8 3 h A h E E E E E E E E E E H V D L I A Z E E E E E E E E E E P s S L 3 d :.:.O.P ;.g.g.g.g.g.g.S.vX",
"vXvXoXg.g.i.4.g.3.T ` :.:.z 4 3 h A h E E E E E E E E E E H V S L I A Z E E E E E E E E E E P s I D 3 d :.:.O.T ;.g.g.g.g.g.g.S.vX",
"vXvXoXg.g.g.4.i.;./ ` :.:.z 4 3 h A h E E E E E E E E E E H V I L I G H ).] E ) E E E E R R P s I D 3 t :.:.O.T ;.g.A.g.g.g.g.d.vX",
"vXvX_.f.f.f.g.g.2.` ] :.-.f 3 3 h G Z ) ) ) ) ) ] ] ) ) ) H V S P I A Z *._ ) ) ) ) ) ) ) ) P s I L 3 t -.:.*.T ;.f.g.f.f.f.f.d.vX",
"vXvX_.f.f.f.f.f.4./ ] -.-.f 3 3 h A Z ) ) ) ) ) O.O.) ) ) H A S P I A Z ) ) ) ) ) ) ) ) ) ) U s I L 3 t -.-.*./ ;.f.f.f.f.f.f.d.vX",
"vXvX_.f.f.f.f.f.3./ ] -.-.d > 3 h A z _ _ _ _ _ _ _ _ _ _ U A I P I A Z _ _ _ _ _ _ _ _ _ _ R V I L 3 q -.-.*./ ;.f.g.g.f.f.f.S.vX",
"vXvXS.f.f.f.f.f.3./ O.-.-.d > 3 h A z _ _ _ _ _ _ _ _ _ _ U A I P I A Z _ _ _ _ _ _ _ _ _ _ R s I K 3 q *.-.*./ ;.f.f.f.f.f.f.d.vX",
"vXvXS.4.3.f.f.f.3./ O.-.-.t > 3 r e 9 c c z c c c H H W W z p Z K L V z ) ) ) _ _ _ _ _ _ _ R s I K 3 q *.-.*.( ;.f.f.f.f.f.f.d.vX",
"vXvXS.(.[.XXXX'.3.( O.-.-.t > 4 r e 3 t t t d d d d d f d 8 7 e r r r 8 t f f f f z z c c c d i Z h 3 q *.-.*.( ;.f.].4XtXuX4X[.vX",
"vXvX+XeXeXeXeXeX+XP T -.*.q > 4 x ^ 6.v.R.%X1X0XqXfXjXqX1X%XR.v.| d w 1 ; ; ; ; ; ; ; ; < < 3 9 r r 3 0 *.-./ C V..X+X4X4X4X4X4XOX",
"vX<.x.C.C.C.C.C.l.K G -.D.!.<XiXjXjXuXjXlXlXlXlXlXlXjXjXjXjXfXfXfXiX0X<X!.v.6.6.w.v.R.^.%X<X1X0X0X0X1X<X3X)./ s l.C.C.C.C.C.C.Z.F.",
"vX+.t.Z.Z.Z.Z.Z.N.P r.3XuXfXfXiXuXtX8X8X8X8X8X8X8XeXeXtXtXtXtXtXtXtXtXeX4X,X{.{.,X,X3X4X4X4X4X3X3X3X,X,X,X{.z.K l.Z.Z.Z.Z.Z.Z.Z.D.",
"vX+.,.N.F.F.F.F.B.E N.`.`.`.`.W.`.`.`.`.Y.K.K.Y.K.K.J.J.J.J.J.J.Z.Z.Z.Z.Z.Z.Z.C.C.C.C.C.C.C.C.C.C.C.k.C.C.C.l./ s.N.N.F.F.F.F.B.s.",
"vX:.,.u.a.a.a.a.a.T 2.a.a.s.s.l.l.s.s.s.s.s.s.s.s.s.N.N.N.N.N.N.N.N.N.N.N.B.B.B.B.B.B.B.V.V.V.V.F.F.F.F.F.N.s.( 4.D.D.(.D.s.a.u.,.",
"vX=.1.1.1.1.1.1.1.J =.1.1.1.1.1.1.1.1.1.1.1.1.1.1.1.1.1.1.1.1.1.1.1.1.1.1.1.1.1.1.1.1.1.1.1.1.1.1.1.1.1.1.1.=.J ' 1.1.1.1.1.1.1.1."
};
