/* XPM */
static char *b8c0fa1c5d8f4a58fdf6944ad6ada62aFICTxF8PYuU6hF2t[] = {
/* columns rows colors chars-per-pixel */
"65 65 175 2 ",
"   c None",
".  c #1C1617",
"X  c #201717",
"o  c #241817",
"O  c #2B1A16",
"+  c #261C1B",
"@  c #2B1D1B",
"#  c #3E1D14",
"$  c #311F1C",
"%  c #3C1F18",
"&  c #2D201F",
"*  c #31201D",
"=  c #3D221B",
"-  c #2A1F20",
";  c #2D2322",
":  c #322523",
">  c #392623",
",  c #352826",
"<  c #3B2825",
"1  c #322728",
"2  c #352B2B",
"3  c #3A2D2C",
"4  c #3D312F",
"5  c #382F30",
"6  c #372F32",
"7  c #373134",
"8  c #3C3333",
"9  c #3B3639",
"0  c #3D393C",
"q  c #411E13",
"w  c #442113",
"e  c #4C2514",
"r  c #4E2817",
"t  c #43241B",
"y  c #4A2719",
"u  c #4C2A1C",
"i  c #502715",
"p  c #542A15",
"a  c #5B2E16",
"s  c #542D1A",
"d  c #5A2F19",
"f  c #5D3017",
"g  c #5F3219",
"h  c #613116",
"j  c #6A3617",
"k  c #643519",
"l  c #683719",
"z  c #67381A",
"x  c #6C3A1A",
"c  c #723E1C",
"v  c #442C24",
"b  c #4D2E22",
"n  c #432E2B",
"m  c #4C3126",
"M  c #44322E",
"N  c #4A342D",
"B  c #553A2D",
"V  c #503528",
"C  c #443533",
"Z  c #493631",
"A  c #453936",
"S  c #4A3A35",
"D  c #453C3B",
"F  c #4B3E3B",
"G  c #503730",
"H  c #553C32",
"J  c #593E32",
"K  c #533F39",
"L  c #76411C",
"P  c #7B451E",
"I  c #7F481F",
"U  c #4C403E",
"Y  c #5B4134",
"T  c #54413B",
"R  c #5B453A",
"E  c #564137",
"W  c #644A3A",
"Q  c #6A4E3B",
"!  c #6E513C",
"~  c #71533C",
"^  c #3F3D41",
"/  c #413F42",
"(  c #454244",
")  c #4C4443",
"_  c #4F4947",
"`  c #464548",
"'  c #4B4749",
"]  c #4C4A4C",
"[  c #514643",
"{  c #584440",
"}  c #534946",
"|  c #5A4B46",
" . c #504748",
".. c #534C4B",
"X. c #5A4D4A",
"o. c #56514F",
"O. c #5B514E",
"+. c #4F4F51",
"@. c #524E51",
"#. c #545354",
"$. c #5C5454",
"%. c #565658",
"&. c #5A5759",
"*. c #5B5B5B",
"=. c #595859",
"-. c #614F46",
";. c #655247",
":. c #63534B",
">. c #6A5649",
",. c #6E5A4D",
"<. c #6A5547",
"1. c #715C4E",
"2. c #625653",
"3. c #645956",
"4. c #6D5B51",
"5. c #625D5C",
"6. c #685C59",
"7. c #755F50",
"8. c #63605F",
"9. c #6C625F",
"0. c #766153",
"q. c #796454",
"w. c #5D5D62",
"e. c #625E61",
"r. c #5F6166",
"t. c #646364",
"y. c #6A6464",
"u. c #6C6867",
"i. c #64656A",
"p. c #696669",
"a. c #67686D",
"s. c #6B6B6B",
"d. c #726C6B",
"f. c #72706F",
"g. c #6B6D72",
"h. c #6E7176",
"j. c #6F7378",
"k. c #737273",
"l. c #787473",
"z. c #777877",
"x. c #787877",
"c. c #73757B",
"v. c #76797E",
"b. c #7B7B7D",
"n. c #80471E",
"m. c #83491F",
"M. c #884D1F",
"N. c #854B20",
"B. c #8A4E20",
"V. c #8E5121",
"C. c #925422",
"Z. c #985924",
"A. c #807C7A",
"S. c #777B80",
"D. c #7A7D83",
"F. c #817E80",
"G. c #7E8186",
"H. c #7F8388",
"J. c #818286",
"K. c #81858A",
"L. c #888688",
"P. c #85898E",
"I. c #8A8A8E",
"U. c #878B91",
"Y. c #898D92",
"T. c #8C9196",
"R. c #8E9398",
"E. c #929396",
"W. c #93969A",
"Q. c #96999D",
"!. c #9A9B9E",
"~. c #A3A6AA",
"^. c #A7AAAE",
"/. c #A5A7AA",
"(. c #AAADB1",
/* pixels */
"                                                                                                                                  ",
"                                                                                                                                  ",
"                                                                                                                                  ",
"                                                                                                                                  ",
"                                                                                                                                  ",
"                                                                4     M                                                           ",
"                                      8 A   8 * C 2 4 3 4 ) 4 F $.[ 4 $.A A O.8 * * 2 A                                           ",
"                                  4 U 9.$.1 $.9.2 } s.t.| t.O.$.t.5.A *.O.o.t.U u.f.8.> ..A , M C                                 ",
"                              M ) U $.z.u.4 =.=.4 ) i.o.F *.} { *.o.S s.U } =.A $.*.=.Z s.8.T u.D ,                               ",
"                          3 ; y.b.d.U 8.t.3 o.8.A U 8.} F *.} / t.$.U k.S ..*.4 #.u.} U *.X.8.8.o.4 ) 4                           ",
"                      8 U u.F [ *.=.C $.u.4 _ f.U U =.) D ] ) [ u.=.S =.S ..*.M =.8.M ..z.} 8.=.S 6.f.) 2 4                       ",
"                    M < y.*.*.< o.t.U F *.U 8 8.U U %.D U #.) C ] _ 4 0 M ( +.< ] =.< =.*.U 8.#.N s.*.U 6.8.8 1                   ",
"                U A U ; U *.*.o.N f.o.4 ] ( : ] 7 2 9 5 3 / 3 , 7 7 & 7 > 7 9 : 9 0 = ` +.C ] U O.t.#.S t.*.U ; 3                 ",
"                3 8.r.o.3 F *.*.C U ] , 2 1 & & & o @ @ + @ @ + + + + O @ @ @ O & & & & & 3 ` 4 8.f.4 3.f...& } $.,               ",
"              8 ; o.i.8.o.> U %.] & 1 @ o o . o & & 1 , 3 3 3 3 , < 2 3 2 3 , 1 & & o X & & & & ` ( N u.*.7 A f.p.D ,             ",
"            4 O.U : U #.=...: 0 9 & o . + 4 ..k.A.L.I.I.P.P.F.c.*.O.v.G.J.P.I.I.J.J.f...2 & . o & ; ( #.9 1 y.z.%.2 1 3           ",
"          , ) i.u.5.& & _ ] A & . + : $.E.(.^.R.U.Y.Y.U.U.Y.Y.P.e.$.U.Y.Y.Y.Y.I.Y.Y.Y./.(.E.5., o @ 1 9 * O.*.+.* U k.) 4         ",
"          T , #.z.i.o.3 & 7 & + . C !.(.T.P.Y.P.I.J.l.f.d.d.P.U.p.&.U.U.d.d.d.A.F.K.I.Y.U.Y.(.!.U . O o D ] ( > 3.s.%.#.,         ",
"        C A U & , ( =.=.) & o o s./.T.P.L.2.G t q q e e e q F.U.e.e.P.F.b q e q r q t G 2.F.Y.Y./.s.+ & 1 3 v f.b.s.8.#.3 9       ",
"        4 t.d.8., + 9 ] 9 & . o./.T.P.9.t i e k a l L l l q J.Y.e.$.U.F.b j x c c i k p q t 6.U.Y.~.o.o + 4 t.$.#._ 8 & & 5       ",
"        9 *.d.z.k.O.@ @ & O 2 ~.Y.Y.{ q d P x m.L N.C.B.c q F.P.p.e.U.F.b x N.C.C.p B.N.p p e K Y.Y.W.A + 1 0 7 & * } $.o.4       ",
"        ; 0 ] #.#.%.#.U & . k.R.Y.2.i l N.B.P N.L B.C.B.c q K.P.e.&.U.F.b c B.C.Z.p B.C.p c c p :.P.W.l.@ + > [ $.s.u.=.#.8       ",
"      8 3 < & 1 2 9 ( 9 & ; R.R.b.y l B.C.N.M.B.x B.C.B.c w K.P.e.$.U.D.b c B.Z.C.p B.Z.a N.B.c t x.Y.Y.7 + A %.=.*.] 9 5 1       ",
"      * =.s.$._ 4 , : ; + F Q.T.| p c C.C.n.V.B.x V.C.N.c q K.P.e.w.T.F.b c B.Z.V.p B.Z.p N.B.P e } U.R. .+ : , * & & ; ; 2       ",
"      2 *.s.s.i.8.8.8.8 + 5.T.Y.b N.c C.C.P C.B.c C.C.N.z q K.U.a.&.Y.F.N x B.Z.C.p B.Z.a n.V.N.L N P.R.8.* 9 8.f.f.s.s.*.4       ",
"    4 , D ( ] ( / ] ] 1 + i.U.T.t C.c C.B.P B.V.L C.C.N.x q D.Y.e.2.Y.K.N l B.C.C.d V.Z.d n.C.N.I m b.U.t.& C ] o.=.t.a.=.4       ",
"      & D U T | U C : & & a.T.K.u C.L V.B.c B.B.c C.B.N.x t K.P.a.5.U.F.Z l B.C.B.d C.Z.a n.C.N.I u b.U.s., & 1 ; , < = : &       ",
"      & ] t.s.k.8.8.A + + s.P.G.u V.P V.B.c C.C.L C.B.N.x v D.P.e.&.U.D.Z l B.C.C.p C.Z.d m.B.N.I u S.U.s., 5 U O.u.l.f.8.U S     ",
"      : ^ ] #.] ` ` 5 + + a.U.v.b V.P B.N.P B.C.L C.C.P c < H.P.e.&.U.K.Z j B.C.C.a V.Z.g P V.I N.m z.Y.s.2 4 =.*.r.f.u.8.` >     ",
"      & : , 4 A S S A + + a.U.G.X.,.4.1.,.4.1.0.3.7.7.,.>.@.H.P.e.$.P.K.$.:.7.7.1.2.,.q.:.>.0.,.4.O.G.Y.s.* ; 2 1 2 5 3 4 1 C     ",
"      & ..*.*.t.8.8._ ; @ i.P.S.r.w.U.i.j.P.*.D.c.=.D.g.i.D.H.P.e.$.P.D.S.e.K.g.a.U.i.c.U.*.G.v.%.H.H.P.a., 1 X.X._ 5.9.d.) C     ",
"      : ^ +.%.+.] ] U ; & i.Y.v.t.e.t.e.t.p.e.t.p.5.p.p.e.e.D.U.w.$.K.D.g.e.e.e.e.p.*.p.p.w.t.t.t.t.H.U.a.* 3 #.=.*.f.d.=.) >     ",
"      ; & & & , : : * @ @ i.Y.v.v h h j h a j l p j j h a M D.P.w.$.K.D./ p j j j q j j p h j h h b S.Y.a.1 ; A 7 7 8 C 9 2 M     ",
"      ; _ $.3.8.y.6./ ; @ w.Y.v.V c c B.P P M.n.x M.m.x P A D.K.&.@.P.H./ j N.B.N.p N.B.k c N.N.c V S.I.w.: ; U S 3 2 4 M ;       ",
"      : ] =.*.8.x.x.e., @ =.U.c.B P c Z.n.M.C.B.c C.B.c N.S D.K.@.@.F.H./ j B.C.B.p B.Z.j n.C.B.N.B S.Y.w.> 5 w.k.s.s.p.s.`       ",
"      & 9 ^ ` #.*.#.` 1 - %.U.v.B P P Z.P N.C.B.c V.V.c B.F D.K.@.@.F.K.{ x B.C.B.p B.Z.k c C.B.N.G S.U.w.> , #.*.#.#.] ] A       ",
"      ; 3 3 * : : : @ @ + #.U.c.B P P Z.N.N.C.B.P C.V.x B.U D.K.+.' H.H. .L V.C.N.p B.Z.l P C.B.N.G S.Y.w.* - 2 2 2 , 1 1 :       ",
"      ; $.8.O.O.2.X.) 1 @ #.U.c.B P L Z.P N.C.B.P B.V.x V.) D.P.] ] P.P./ P C.B.N.a B.Z.l P C.B.m.J S.Y.=.- ; D U ) _ ..[ 2       ",
"      1 =.i.h.i.*.*.$.2 @ @.Y.c...| ;.,.-.;.<.>.-.<.>.-.,.@.D.H./  .P.D.#.:.,.<.-.| ;.,.| -.,.:.>.@.D.T.%.; , *.*.*.%.s.s.A       ",
"      1 ` #.] / / ( ^ 1 @ ] Y.j.g.i.U.s.v.P.w.K.v.i.K.h.h.K.D.K. ./ F.F.S.a.F.j.h.U.a.D.U.e.F.D.e.K.D.Y.%.* : 6 7 2 2 4 9 ,       ",
"      & : < * * : < * @ + _ U.c.&.@.e.#.$.e.@.5.5.@.5.&.$.e.S.K. ./ I.F.e.$.e.&.&.e.@.&.e.@.e.e.@.w.D.Y.#.* , ..2.5.$.5.2.A T     ",
"    C 2 #.y.A.f.5.*.} : + ' P.c.N s d g d d g s s d d s k / D.K./ / F.I./ a h h d e h h i a h d g N v.Y.#.* 8 t.s.s.r.*.u.o.A     ",
"    4 2 +.w.s.i.%.#.] > + ` Y.c.J k c M.c c m.c c N.N.h B.{ D.K./ / F.P.{ c M.M.c h n.N.a c n.n.c B v.U.+.: 3 +.=.%.] o._ 9 T     ",
"      & 7 ^ / U 2 1 ; + O ( Y.f.J l P C.m.B.V.n.P B.B.x Z.X.D.H./ / F.D./ P V.M.n.k B.Z.h n.C.B.n.Y v.Y.] * + ; & * : : 1 ;       ",
"      2 + * v S X.:.[ : O ( U.g.H x P C.n.B.B.N.P V.B.x Z.X.S.D./ / F.Y.+.L V.V.L l M.Z.h n.C.B.m.J v.U._ & , 2.d.J.l.u.d.T U     ",
"      , *.t.t.8.i.d.%.3 O ( Y.c.H x P C.n.B.B.P P B.B.c Z.X.S.P.K / D.U.+.P M.V.L k V.Z.h n.C.B.n.J D.R._ & A *.=.t.f.z.t.o.2     ",
"    8 2 ] #.#.o.' ] / : O / Y.g.J x P C.N.B.V.P P C.B.c Z.X.S.D.K S F.F./ n.C.M.m.l B.Z.h n.V.B.P H v.U.] @ 1 ` ( ] w.*.*.( 2     ",
"      & ; 2 8 3 > > @ - O D Y.g.[ R W Q W Q Q W W ! Q R ~ ..S.H.S C F.D.@.;.<.<.-.Y ;.! J -.! Q W [ S.Y._ + & . & + + @ * ; ,     ",
"    D 3 o.) } O.u.d.8., & A U.h.c.i.Y.h.S.Y.a.K.D.g.K.v.j.U.v.K.A A D.H.S.g.P.v.c.Y.g.S.U.g.K.G.i.P.D.U.) O 1 $.6.y.y.u.d.5.,     ",
"    7 A =.*.*.#.] ] #.7 O A Y.h.t.%.g.e.e.g.#.p.i.#.s.e.%.c.v.J.A A H.H.i.&.s.e.*.k.#.i.g.@.s.i.%.g.S.Y.) O 1 %.t.d.8.%.#.o.:     ",
"    7 2 0 U ) ` U U 0 ; O A P.h.Z y s s s s d y r s s y d  .v.K.C C D.F.' s s d s y s d y s s s s Z S.U./ $ ; 9 ( ( 9 9 9 9 1     ",
"    4 ; 3 , ; ; 3 A , ; O A T.h.Y k c m.c c M.c c n.N.k B.X.S.K.C C K.D. .c N.N.c g n.B.h P N.P c J v.U.) + ; > 3 S | | S ; 4     ",
"    9 } t.k.u.=.i.r.*.2 O C T.h.Y l N.V.P N.C.c L V.B.l Z.X.D.D.M C D.F. .N.C.V.c k V.Z.z B.C.B.c J v.Y./ $ 1 *.r.f.f.u.t.$.2     ",
"    3 D #.*.#.] _ ] ] 2 O C P.g.Y l P V.P N.C.c P C.B.l Z.X.S.G.M n K.D. .P C.C.P k C.C.x B.V.V.c J v.Y.F $ 1 ' ] ] +.] _ ( ;     ",
"    8 & 2 3 , 1 1 2 < & O C Y.g. .K T R K R R R T R R K R #.b.H.M n D.D.@.R R R K K W R T R R R K [ v.U.F O @ : * : : 3 M 3 ;     ",
"    9 [ 5.5.2.O.O.5.} : O Z P.H.H.L.Y.R.W.Q.Q.!.Q.W.R.U.K.D.P.K.M C D.Y.S.P.Y.T.Q.Q.Q.Q.Q.Q.W.Y.U.D.K.U.F O : @.u.u.8.t.u.=.2     ",
"    0 _ *.8.f.i.=.=._ > + M U.P.Y.Y.U.I.U.U.U.U.U.U.U.U.U.U.Y.K.N n D.Y.Y.Y.U.U.Y.U.Y.Y.U.Y.Y.Y.Y.Y.Y.Y.F O 1 ] s.t.%.%.#.` 2     ",
"    9 : 2 1 1 2 2 2 1 & O = < < < < < < < < < < < < < 3 < < < < % q < 3 < < < < < < < < < < < < < < < < = O ; 7 2 2 7 7 7 2 ,     ",
"        2 1 2 2 , 2 ,                                                                                       3 ; 2 2 ; & & 2       ",
"                                                                                                                                  ",
"                                                                                                                                  ",
"                                                                                                                                  ",
"                                                                                                                                  ",
"                                                                                                                                  ",
"                                                                                                                                  "
};
