/* XPM */
static char *_670540061550[] = {
/* columns rows colors chars-per-pixel */
"65 65 231 2 ",
"   c #2E1B1C",
".  c #321E1E",
"X  c #3B221D",
"o  c #35211E",
"O  c #2F1E21",
"+  c #321F20",
"@  c #342122",
"#  c #3C2523",
"$  c #3B2728",
"%  c #3D292A",
"&  c #4C2612",
"*  c #4E2912",
"=  c #44251C",
"-  c #492819",
";  c #512713",
":  c #552B13",
">  c #5A2E14",
",  c #542D1A",
"<  c #5B2E18",
"1  c #5D3014",
"2  c #5C341D",
"3  c #55321D",
"4  c #52270F",
"5  c #642C0F",
"6  c #6A2E0F",
"7  c #6E300F",
"8  c #73320E",
"9  c #7C350E",
"0  c #7B380E",
"q  c #642D11",
"w  c #623215",
"e  c #63351D",
"r  c #6C381A",
"t  c #733E1D",
"y  c #793814",
"u  c #442B25",
"i  c #4B2E24",
"p  c #432A26",
"a  c #4B322C",
"s  c #4A3327",
"d  c #523A24",
"f  c #5E3C24",
"g  c #563527",
"h  c #4A3633",
"j  c #4C3936",
"k  c #4C3C3B",
"l  c #543C35",
"z  c #522F21",
"x  c #643B24",
"c  c #6A3C22",
"v  c #653B26",
"b  c #743E21",
"n  c #401E15",
"m  c #7C441E",
"M  c #77411B",
"N  c #7F450D",
"B  c #5B462B",
"V  c #5A433A",
"C  c #4F403F",
"Z  c #6B422A",
"A  c #66462B",
"S  c #7A4728",
"D  c #674935",
"F  c #764D34",
"G  c #6B5335",
"H  c #765438",
"J  c #796339",
"K  c #4E4343",
"L  c #4F4849",
"P  c #534543",
"I  c #534B4D",
"U  c #5B4B49",
"Y  c #5D504F",
"T  c #545256",
"R  c #54555A",
"E  c #5A5759",
"W  c #5C5A5D",
"Q  c #595456",
"!  c #514E51",
"~  c #685146",
"^  c #7B5944",
"/  c #665957",
"(  c #715C57",
")  c #624B45",
"_  c #776251",
"`  c #5C5D61",
"'  c #5F6166",
"]  c #63656A",
"[  c #656366",
"{  c #776B6A",
"}  c #696C71",
"|  c #7C7575",
" . c #84390D",
".. c #8B3C0D",
"X. c #81370E",
"o. c #913E0D",
"O. c #8A3E12",
"+. c #833B13",
"@. c #95400C",
"#. c #9C430D",
"$. c #9D4C0F",
"%. c #83491F",
"&. c #884319",
"*. c #924314",
"=. c #9B4816",
"-. c #904F0D",
";. c #A3460D",
":. c #A64B0E",
">. c #AC4A0D",
",. c #B44E0E",
"<. c #B84F0E",
"1. c #BC520E",
"2. c #A44A13",
"3. c #AA4C13",
"4. c #B34F10",
"5. c #A85419",
"6. c #B65314",
"7. c #B26F11",
"8. c #854A22",
"9. c #8A4C21",
"0. c #894D2A",
"q. c #844928",
"w. c #934C20",
"e. c #8D5128",
"r. c #995728",
"t. c #875939",
"y. c #955A35",
"u. c #A55D2D",
"i. c #836A3E",
"p. c #89633B",
"a. c #93663C",
"s. c #95602A",
"d. c #A4653D",
"f. c #B86C37",
"g. c #9E620B",
"h. c #C3550E",
"j. c #C47710",
"k. c #CB6C2D",
"l. c #835B44",
"z. c #905F43",
"x. c #83624C",
"c. c #896647",
"v. c #986946",
"b. c #997145",
"n. c #9A6D50",
"m. c #997557",
"M. c #8D6E4C",
"N. c #A56D48",
"B. c #A4714D",
"V. c #A8774A",
"C. c #B6754A",
"Z. c #AE7C5A",
"A. c #A67654",
"S. c #B37A54",
"D. c #B16F44",
"F. c #837470",
"G. c #A07E60",
"H. c #CC7D47",
"J. c #D3962B",
"K. c #EFAD35",
"L. c #E39D1D",
"P. c #AC844C",
"I. c #A7804A",
"U. c #A7825B",
"Y. c #B3815B",
"T. c #BB835B",
"R. c #B48D53",
"E. c #BD9455",
"W. c #B28A4F",
"Q. c #AC8664",
"!. c #B78A66",
"~. c #BB926C",
"^. c #BA9874",
"/. c #9D8066",
"(. c #C49B58",
"). c #C6865A",
"_. c #CCA35C",
"`. c #D1A85F",
"'. c #C28B63",
"]. c #CA956B",
"[. c #D6996C",
"{. c #C69C75",
"}. c #D39D72",
"|. c #DB9F71",
" X c #D6AC61",
".X c #D9AF63",
"XX c #CBA47C",
"oX c #C5A37B",
"OX c #D5A479",
"+X c #E3A474",
"@X c #E9AB7A",
"#X c #ECA976",
"$X c #FABD42",
"%X c #878486",
"&X c #928785",
"*X c #9A9697",
"=X c #8F8F93",
"-X c #9E9FA1",
";X c #A9A5A5",
":X c #ADB1B4",
">X c #B6B8BB",
",X c #B4AFAD",
"<X c #9F9E9F",
"1X c #C9A981",
"2X c #D7AE83",
"3X c #D9B68A",
"4X c #D8B88E",
"5X c #EDBC8C",
"6X c #E6B788",
"7X c #F2B987",
"8X c #E7BF90",
"9X c #C1ADA0",
"0X c #E3C395",
"qX c #ECC495",
"wX c #EBCA9B",
"eX c #E6C698",
"rX c #F5C594",
"tX c #F4CB99",
"yX c #F7CB99",
"uX c #F5D4A4",
"iX c #FAD4A3",
"pX c #FBD9A6",
"aX c #FEDEAB",
"sX c #ECCFAB",
"dX c #FFE0B1",
"fX c #B8BDC1",
"gX c #BDC2C5",
"hX c #C4C8CB",
"jX c #CDCFD1",
"kX c #FEE7C3",
"lX c None",
/* pixels */
"lXlXlXlXlXlXlXlXlXlXlXlXlXlXlXlXlXlXlXlXlXlXlXlXlXlXlXlXlXlXlXlXlXlXlXlXlXlXlXlXlXlXlXlXlXlXlXlXlXlXlXlXlXlXlXlXlXlXlXlXlXlXlXlXlX",
"lXlXlXlXlXlXlXlXlXlXlXlXlXlXlXlXlXlXlXlXlXlXlXlXlXlXlXlXlXlXlXlXlXlXlXlXlXlXlXlXlXlXlXlXlXlXlXlXlXlXlXlXlXlXlXlXlXlXlXlXlXlXlXlXlX",
"lXlXlXlXlXlXlXlXlXlXlXlXlXlXlXlXlXlXlXlXlXlXlXlXlXlXlXN.lXlXlXlXlXlXlXlXlXlXlXlXlXlXlXlXlXlXlXlXlXlXlXlXlXlXlXlXlXlXlXlXlXlXlXlXlX",
"lXlXlXlXlXlXlXlXlXlXlXlXlXlXlXlXlXlXlXlXlXlXlXlXq.2.4.6.6.*.8.2.3.3.3.=.lXlXlXlXlXlXlXlXlXlXlXlXlXlXlXlXlXlXlXlXlXlXlXlXlXlXlXlXlX",
"lXlXlXlXlXlXlXlXlXlXlXlXlXlXlXlXlXlXlXlXlXlXlXt 2.6.1.h.4.=.2.6.<.1.1.3.5.lXlXlXlXlXlXlXlXlXlXlXlXlXlXlXlXlXlXlXlXlXlXlXlXlXlXlXlX",
"lXlXlXlXlXlXlXlXlXlXlXlXlXlXlXlXlXlXlXlXlXlXb *.1.h.h.h.,.4.h.h.h.h.h.4.w.lXlXlXlXlXlXlXlXlXlXlXlXlXlXlXlXlXlXlXlXlXlXlXlXlXlXlXlX",
"lXlXlXlXlXlXlXlXlXlXlXlXlXlXlXlXlXlXlXlXw.@.o.,.h.h.h.h.h.1.,.<.1.h.,.;.*.lXlXlXlXlXlXlXlXlXlXlXlXlXlXlXlXlXlXlXlXlXlXlXlXlXlXlXlX",
"lXlXlXlXlXlXlXlXlXlXlXlXlXlXlXlXlXlXlXlX2.;.;.,.1.h.h.4.4.;.O.O.4.,.2.=.*.w.lXlXlXlXlXlXlXlXlXlXlXlXlXlXlXlXlXlXlXlXlXlXlXlXlXlXlX",
"lXlXlXlXlXlXlXlXlXlXlXlXlXlXlXlXlXlXlX0.3.;.o.o.#.;.=.9.0.0.y.0.O.o.#. .y lXlXlXlXlXlXlXlXlXlXlXlXlXlXlXlXlXlXlXlXlXlXlXlXlXlXlXlX",
"lXlXlXlXlXlXlXlXlXlXlXlXlXlXlXlXlXlXlXt ;.;.o...y 9.C.'.}.}.2X{.C.d.N.y.b lXlXlXlXlXlXlXlXlXlXlXlXlXlXlXlXlXlXlXlXlXlXlXlXlXlXlXlX",
"lXlXlXlXlXlXlXlXlXlXlXlXlXlXlXlXlXlX+.#.;.#.o.o.y B.~.{.{.1X8XqX6X2X2X~.lXlXlXlXlXlXlXlXlXlXlXlXlXlXlXlXlXlXlXlXlXlXlXlXlXlXlXlXlX",
"lXlXlXlXlXlXlXlXlXlXlXlXlXlXlXlXlXlX2.,.#.*.o.o.q.Q.Z.D.D.B.Z.}.wXaXuX3XlXlXlXlXlXlXlXlXlXlXlXlXlXlXlXlXlXlXlXlXlXlXlXlXlXlXlXlXlX",
"lXlXlXlXlXlXlXlXlXlXlXlXlXlXlXlXlXlX3.<.=.r.w.*.t.m.u.2.3.;.o.y.1XuX8X~.lXlXlXlXlXlXlXlXlXlXlXlXlXlXlXlXlXlXlXlXlXlXlXlXlXlXlXlXlX",
"lXlXlXlXlXlXlXlXlXlXlXlXlXlXlXlXlXlX>.3.d.^.A.9.y.m.u.#.o.4.<.r.~.4XT.r.lXlXlXlXlXlXlXlXlXlXU { &XF.( lXlXlXlXlXlXlXlXlXlXlXlXlXlX",
"lXlXlXlXlXlXlXlXlXlXlXlXlXlXlXlXlXlXy =.C.{.2XG.A.Q.e.q 7 +.+.0.1X~.q.=.lXlXlXlXlXlXlXlXlX( lX=X%X{ lXlXlXlXlXlXlXlXlXlXlXlXlXlXlX",
"lXlXlXlXlXlXlXlXlXlXlXlXlXlXlXlXlXt =.=.C.S.Q.XXOX|.S.S l.l.F Z.3XG.e b lXlXlXlXlXlXlXF.*X<X%X/ Q k lXlXlXlXlXlXlXlXlXlXlXlXlXlXlX",
"lXlXlXlXlXlXlXlXlXlXlXlXlXlXlXlXlX&.;.&.C.n.n.|.6X+X|.S.^ ) ^ {.tXG.l lXlXlXlXlXlXlXF.;X:X%XI h j lXlXlXlXlXlXlXlXlXlXlXlXlXlXlXlX",
"lXlXlXlXlXlXlXlXlXlXlXlXlXlXlXlXe O.#.O.N.N.B.T.[.+X7X}.G.m.^.8XpX{.l.lXlXlXlXlXlXlX*XhX;X[ k j a lXlXlXlXlXlXlXlXlXlXlXlXlXlXlXlX",
"lXlXlXlXlXlXlXlXlXlXlXlXlXlXlXz 6  .#.o.0.N.B.B.S.|.5X3X8XuXpXdXdX8XA.lXlXlXlXlXlX&X>X:X{ C K ! k lXlXlXlXlXlXlXlXlXlXlXlXlXlXlXlX",
"lXlXlXlXlXlXlXlXlXlXlXlXlXlXg , q q O.o.X.r 0.).#X7XyXiXuX8XtXdXaXsX^.x.lXlXlXlXlX*XfX%XK K T R I k lXlXA M Z 2 lXlXlXlXlXlXlXlXlX",
"lXlXlXlXlXlXlXlXlXlXlXlX3 : * 1 > > & 6 7  .3.H.#X#X7X6XT.~.wXaXdXkXsX1XlXlXlXlXlXlX=X) k R R R R T j lXe %.%.%.f lXlXlXlXlXlXlXlX",
"lXlXlXlXlXlXlXlXlXlXlX3 * * * > : 4 & ; 6 o.1.k.H.C.H.H.a.Y.rXrXiXdXsX1XlXlXlXlXlXlX{ P ! R R R ` E a i > t %.S x lXlXlXlX~ ( lXlX",
"lXlXlXlXlXlXlXlXlXlX3 : : 1 > > > : : ; 8 >.h.h.=.w.5.5.S N.+XOX{.6X}.G.lXlXlXlXlXlXW C R R R R ` I j I a < w r lXlXlXlXlX/ { lXlX",
"lXlXlXlXlXlXlXlXlXd * : > 1 > > : 1 > < 8 ,.h.o.+.o.1.,. .9.D.d.y.B.N.0.S lXlXlXlXlXP L R R R ` E j ! ] Q l g < lXlXlXlXa W &XlXlX",
"lXlXlXlXlXlXlXlXg & & : > * > 1 > 1 1 > 6 :.4.8  .4.1.1.>.#...&.0.t.y O.O.lXlXlXlXlXk ! R R W ` P j ` ` ] ' C a a lXlXlXa Q <X( lX",
"lXlXlXlXlXlXlXlX= : 1 ; > > * 1 w w : * 4 #.#.8 #.>.<.1.1.<.;.=.!.}.f.,.3.lXlXlXlXY k R R R W Q k ! ] ` ` ] ` h j P P k u k :X) lX",
"lXlXlXlXlXlXlX3 & : 1 : : 1 1 1 > > : : 4 @.0  .#.>.:.>.1.>.@.%.Z.Z.y.4.=.y lXlXlXY K ` ' ] ' I K } ` R ` ] L h E R R T K P >XV lX",
"lXlXlXlXlXlXA 3 1 : 1 : 1 1 : 1 : > > : 4 8 6 0 #.#.#.>.>.#.9 6 F q.O.;.#.+.lXlXlXP a K I ! I k Q } ` ` ` / h I ` R R T K Y fXV lX",
"lXlXlXlXlXlXG 1 w > w * w * * : * > : * * 5 5  .#.@.#.;.;...7 8 +.+.9 ..o.9 lX( lX/ k V Y / P j E } ` ` [ P h ` ` R R R C [ gXU lX",
"lXlXlXlXlXlXp.2 1 > w > > * * : * : > * * > 5 0 @.@.o.o. .9 8 ..#.#. .9 9 6 lXlX| [ P lXlXlXlXg P / ] ` ` k I ' R R R T k %XgX~ lX",
"lXlXlXlXlXlXa.3 * > 1 : : : : 1 > > 1 > > > 5 8 ....X.9 7 9 ..;.>.,.3...8 q lXlX{ { j lXlXlXlXc e l U W I C ' ` R R R I P *X>X( lX",
"lXlXlXlXlXA V.3 * : 3 : : : 1 : > w w 1 > 5 7 5 7 5 5 7  .@.,.1.h.h.h.1.#.&.lXlX( { lXlXlXlXlXt %.M g h k T } R R R R C ( :X,XlXlX",
"lXlXlXlXlXA (.p.2 & = & * * * * & : , f 2 0  .5 5 6  .#.4.1.h.h.h.h.h.h.h.5.lXlXlXlXlXlXlXlXt %.9.%.M i j W } R R R L j *XgX&XlXlX",
"lXlXlXlXlXZ _.(.P.Z F Z f A G H H M.U.^.U.&.8 7 -.-.*.3.1.h.h.h.h.h.h.h.h.3.t lXlXlXlXlXlXF m %.9.%.Z lXlXI ] ` R ! k { fXjX( lXlX",
"lXlXlXlXlXx  X.X`.p.V.T.~.oXXXXX1X4X0XtXOXS -.7.J.J.7.3.h.h.h.h.h.h.h.h.h.;.t lXlXlXlXlXlXc %.9.8.M 2 lXlXV I ' R k / -XhX;XlXlXlX",
"lXlXlXlXlX2 `..X.Xa.Y.+XtXpXaXaXaXaXaXaX6XH g.L.$XK.7.;.1.h.h.h.h.h.h.h.h.2.8.H lXlXlXlXv t 8.%.m t lXlXlXlXa R I P %XfXgXF.lXlXlX",
"lXlXlXlXlX3 `..X.XI.V.+XrXaXaXaXaXaXaXiX6Xt.7.K.K.L.7.=.<.h.h.h.h.h.h.h.1.5.r.a.^ lXlX_ Z m 9.%.M x lXlXlXlXp k I | fXfX*XlXlXlXlX",
"lXlXlXlXlXB `..X.XE.b.+XrXpXaXaXaXaXiX5X}.S $.j.7.g.y O.,.1.h.1.,.1.h.h.1.2.-.s.c.l.m.F t %.9.m c lXlXlXlXl L L | fXgX/.~ lXlXlXlX",
"lXlXlXlXlXt.`..X.X_.b.|.rXiXaXdXaXtX}.c.c - : > q X.O...3.4.4.h.,.,.1.1.,...w p.Z.^ D f Z M M t lXlXlXlXlX/ %X;X>X;XF.lXlXlXlXlXlX",
"lXlXlXlXlXb.`..X.X`.p.[.7XaXaXaXpX{.t.r < ; : ; ; r 8.S +.o.3.1.>.>.h.<.#. .S n.Z.^ ^ ~.^.U.c.f lXlXlXlX~ | =X&X&XF.lXlXlXlXlXlXlX",
"lXlXlXlXG W..X.X.X.Xa.].@XiXaXaX0XM.c ; ; < ; ; ; S S.S.D.0.O.3.>.>.1.>.o.0 0.~.'.l.m.eXwX0X1XG.lXlXlXlXlXF.=XlXlXlXlXlXlXlXlXlXlX",
"lXlXlXlXl.(..X.X.X.XW.T.+XrXpXaX^.Z : & < ; ; < x v.[.].B.z.0.O.#.>.1.;.9 8 y.^.~.m.Q.4XuXaXuX3XlXlXlXlXlXlXlXlXlXlXlXlXlXlXlXlXlX",
"lXlXlXlXb._..X.X.X.X(.A.+X7XyXpXM.< - ; < ; > q t.].@XT.l.N.B.0...>.<...6 0 e.m.Q.^.1X^.0XaXuX4XlXlXlXlXlXlXlXlXlXlXlXlXlXlXlXlXlX",
"lXlXlXA (..X.X.X.X.X_.b.[.#XrX6XD ; & < ; ; < 2 Q.qXtX6X}.].|.d.9 ;.;.9 < t S ~ m.4XpXwXwXaXsX1XlXlXlXlXlXlXlXlXlXlXlXlXlXlXlXlXlX",
"lXlXlXP.`..X.X.X.X.X.XP.B.[.@XB.x ; q < ; q , A.qXaXaXaXpXiX6Xd. .#...q ^ Q.m.^ x.Q.4XuXaXaXwX/.lXlXlXlXlXlXlXlXlXlXlXlXlXlXlXlXlX",
"lXlXG _..X.X.X.X.X.X.X_.S.N.'.z.< : e ; < ; c {.pXaXaXdXdXyX}.y...o.8 x n.2X^.m.1X0XeXpXdXpX4XlXlXlXlXlXlXlXlXlXlXlXlXlXlXlXlXlXlX",
"lXlXM. X.X.X.X.X.X.X.X.X(.b.t.v : q q ; q , l.6XaXaXaXaXaX5XZ.q.o.o.6 v Y.6XQ.H 1XuXuXaXaXeX^.lXlXlXlXlXlXlXlXlXlXlXlXlXlXlXlXlXlX",
"lXlXV..X.X.X.X.X.X.X.X.X.Xa.z - - < , ; w , n.wXaXaXdXdXdX5XN.b  .X.> v !.}.v.v M.3XuXaXeX^.lXlXlXlXlXlXlXlXlXlXlXlXlXlXlXlXlXlXlX",
"lXlXP..X.X.X.X.X.X.X.X.X`.A # X = > & 4 q x Z.tXdXaXaXaXpX5XA.x q 5 z v n.B.S M S n.2X8XXXlXlXlXlXlXlXlXlXlXlXlXlXlXlXlXlXlXlXlXlX",
"lXlXP..X.X.X.X.X.X.X.X.XE.z o % # = . > q x !.rXiXaXaXpXrX|.l.p @ . p a D A M 9.9.q.c.Y.l.lXlXlXlXlXlXlXlXlXlXlXlXlXlXlXlXlXlXlXlX",
"lXlXP.`..X.X.X.X.X.X.X.Xa.= @ $ % % # = - x S.@X7X7XrXrX6Xv.a @ @ $ p a lXZ m 9.9.M x lXlXlXlXlXlXlXlXlXlXlXlXlXlXlXlXlXlXlXlXlXlX",
"lXlXW..X.X.X.X.X.X.X.X_.H o O $ % % % % p z l.S.[.#X@X6X'.F p @ + $ p l D S 9.e.8.M lXlXlXlXlXlXlXlXlXlXlXlXlXlXlXlXlXlXlXlXlXlXlX",
"lXc.E.`. X.X.X.X.X.X.XE.B o O $ % % % % $ X u A F t.z.l.F a p + + $ $ a x m 9.w.M r lXlXlXlXlXlXlXlXlXlXlXlXlXlXlXlXlXlXlXlXlXlXlX",
"lXG P.P.W.E.(._.`.`._.b.-     @ % % % % $ +   o X n = n X # # @ + $ p p x m 9.%.Z lXlXlXlXlXlXlXlXlXlXlXlXlXlXlXlXlXlXlXlXlXlXlXlX",
"lXlXlXlXlXc.V.W.E.R.R.p.= o X p X p u s u # o @ $ $ +   X u i i X lXlXlXlXc m t Z lXlXlXlXlXlXlXlXlXlXlXlXlXlXlXlXlXlXlXlXlXlXlXlX",
"lXlXlXlXlXlXlXx.x.H ^ lX& d B 3 = = f G A i a # X # @ . g D A lXlXlXlXlXlXlXf , lXlXlXlXlXlXlXlXlXlXlXlXlXlXlXlXlXlXlXlXlXlXlXlXlX",
"lXlXlXlXlXlXlXlXlXlXlXlXd G J G lXl G i.H B lXlXs - d B G A ~ lXlXlXlXlXlXlXlXlXlXlXlXlXlXlXlXlXlXlXlXlXlXlXlXlXlXlXlXlXlXlXlXlXlX",
"lXlXlXlXlXlXlXlXlXlXlXlXB J H lXlXlXlX^ B B lXlXd B G J G G G G lXlXlXlXlXlXlXlXlXlXlXlXlXlXlXlXlXlXlXlXlXlXlXlXlXlXlXlXlXlXlXlXlX",
"lXlXlXlXlXlXlXlXlXlXlXlX, B G lXlXlXlXlXlXlXlXlXB B J I.i.i.c.i.H lXlXlXlXlXlXlXlXlXlXlXlXlXlXlXlXlXlXlXlXlXlXlXlXlXlXlXlXlXlXlXlX",
"lXlXlXlXlXlXlXlXlXlXlXlXV d lXlXlXlXlXlXlXlXlXlXB d J i.i.i.i.J G lXlXlXlXlXlXlXlXlXlXlXlXlXlXlXlXlXlXlXlXlXlXlXlXlXlXlXlXlXlXlXlX",
"lXlXlXlXlXlXlXlXlXlXlXlXlXlXlXlXlXlXlXlXlXlXlXlXB B B B G G B B d lXlXlXlXlXlXlXlXlXlXlXlXlXlXlXlXlXlXlXlXlXlXlXlXlXlXlXlXlXlXlXlX",
"lXlXlXlXlXlXlXlXlXlXlXlXlXlXlXlXlXlXlXlXlXlXlXlXlXlXlXG ~ ~ G ~ lXlXlXlXlXlXlXlXlXlXlXlXlXlXlXlXlXlXlXlXlXlXlXlXlXlXlXlXlXlXlXlXlX",
"lXlXlXlXlXlXlXlXlXlXlXlXlXlXlXlXlXlXlXlXlXlXlXlXlXlXlXlXlXlXlXlXlXlXlXlXlXlXlXlXlXlXlXlXlXlXlXlXlXlXlXlXlXlXlXlXlXlXlXlXlXlXlXlXlX",
"lXlXlXlXlXlXlXlXlXlXlXlXlXlXlXlXlXlXlXlXlXlXlXlXlXlXlXlXlXlXlXlXlXlXlXlXlXlXlXlXlXlXlXlXlXlXlXlXlXlXlXlXlXlXlXlXlXlXlXlXlXlXlXlXlX",
"lXlXlXlXlXlXlXlXlXlXlXlXlXlXlXlXlXlXlXlXlXlXlXlXlXlXlXlXlXlXlXlXlXlXlXlXlXlXlXlXlXlXlXlXlXlXlXlXlXlXlXlXlXlXlXlXlXlXlXlXlXlXlXlXlX"
};
