/* XPM */
static char *result[] = {
/* columns rows colors chars-per-pixel */
"65 65 192 2 ",
"   c #22201F",
".  c #221F21",
"X  c #232020",
"o  c #222121",
"O  c #232022",
"+  c #232122",
"@  c #252223",
"#  c #262324",
"$  c #262425",
"%  c #272425",
"&  c #292628",
"*  c #2B2A29",
"=  c #403C3E",
"-  c #423D3E",
";  c #453E3F",
":  c #493E3F",
">  c #624A3F",
",  c #4E4444",
"<  c #514949",
"1  c #5D4D4B",
"2  c #5B5956",
"3  c #634A40",
"4  c #644C42",
"5  c #654E45",
"6  c #664E44",
"7  c #644E46",
"8  c #664F46",
"9  c #665047",
"0  c #6C5146",
"q  c #70574A",
"w  c #635250",
"e  c #6D5850",
"r  c #695B54",
"t  c #605B5A",
"y  c #66595C",
"u  c #6F5C5B",
"i  c #775C52",
"p  c #775F54",
"a  c #755F5C",
"s  c #6C635B",
"d  c #786053",
"f  c #7C6153",
"g  c #7E675C",
"h  c #6E6962",
"j  c #776963",
"k  c #71706A",
"l  c #72706C",
"z  c #72716E",
"x  c #73726E",
"c  c #75716C",
"v  c #78726C",
"b  c #757471",
"n  c #7A7874",
"m  c #7E7D7A",
"M  c #81645A",
"N  c #846A5B",
"B  c #8D685D",
"V  c #8E6A61",
"C  c #876D69",
"Z  c #8B7060",
"A  c #8E7465",
"S  c #8C7269",
"D  c #8A7A6E",
"F  c #977267",
"G  c #917564",
"H  c #92716D",
"J  c #91736E",
"K  c #957A69",
"L  c #987D6C",
"P  c #997E6F",
"I  c #9A7F6E",
"U  c #9C7F6F",
"Y  c #8C7B76",
"T  c #8D7E77",
"R  c #9F7971",
"E  c #987A75",
"W  c #A27270",
"Q  c #A97B71",
"!  c #AF7F77",
"~  c #9D806E",
"^  c #9F806F",
"/  c #85847F",
"(  c #9B8173",
")  c #9D8070",
"_  c #9C8170",
"`  c #9D8170",
"'  c #9D8172",
"]  c #9D8173",
"[  c #9E8577",
"{  c #9D8578",
"}  c #98837C",
"|  c #A38372",
" . c #A78179",
".. c #AE867C",
"X. c #AE8A7A",
"o. c #B3827C",
"O. c #B7857D",
"+. c #8C8B86",
"@. c #8C8B87",
"#. c #8C8A88",
"$. c #8C8B88",
"%. c #8D8B88",
"&. c #8C8B89",
"*. c #8D8C88",
"=. c #8D8C89",
"-. c #8E8D8A",
";. c #8F8E8A",
":. c #908F8B",
">. c #908F8D",
",. c #959490",
"<. c #9B9A96",
"1. c #AD8C84",
"2. c #B68881",
"3. c #B68D85",
"4. c #B98882",
"5. c #B99387",
"6. c #A09F9B",
"7. c #B89490",
"8. c #A4A3A0",
"9. c #A8A7A3",
"0. c #ABA9A6",
"q. c #ADACA8",
"w. c #C08B83",
"e. c #C3908B",
"r. c #C79189",
"t. c #C19589",
"y. c #C9958B",
"u. c #CD978D",
"i. c #CE948E",
"p. c #D0968E",
"a. c #D3988F",
"s. c #CC9590",
"d. c #CE9794",
"f. c #C69C94",
"g. c #CD9894",
"h. c #D09890",
"j. c #D29893",
"k. c #D39A93",
"l. c #D49991",
"z. c #D69A92",
"x. c #D69B93",
"c. c #D49D93",
"v. c #D79E93",
"b. c #D79D95",
"n. c #D89C94",
"m. c #D89D94",
"M. c #DB9E95",
"N. c #DD9F96",
"B. c #DAA298",
"V. c #D9A19A",
"C. c #DFA198",
"Z. c #DEA298",
"A. c #DDA59E",
"S. c #E1A299",
"D. c #E1A39A",
"F. c #E2A49A",
"G. c #E4A59A",
"H. c #E4A59B",
"J. c #E5A59B",
"K. c #E6A59B",
"L. c #E5A69A",
"P. c #E4A69B",
"I. c #E1A59C",
"U. c #E1A59D",
"Y. c #E2A69D",
"T. c #E0A59E",
"R. c #E1A69F",
"E. c #E5A59C",
"W. c #E7A59C",
"Q. c #E4A69C",
"!. c #E5A69C",
"~. c #E4A69D",
"^. c #E5A69D",
"/. c #E4A59E",
"(. c #E3A89F",
"). c #E7A99F",
"_. c #DCA6A0",
"`. c #D4ADA0",
"'. c #D9B1A6",
"]. c #E3A8A0",
"[. c #E1A8A2",
"{. c #E3A8A2",
"}. c #E4A8A0",
"|. c #E7ACA2",
" X c #EAB2A7",
".X c #EBB6AB",
"XX c #E8BBB1",
"oX c #EFBBB0",
"OX c #F0C0B3",
"+X c #F1C2B6",
"@X c #F2C3B7",
"#X c None",
/* pixels */
"#X#X#X#X#X#X#X#X#X#X#X#X#X#X#X#X#X#X#X#X#X#X#X#X#X#X#X#X#X#X#X#X#X#X#X#X#X#X#X#X#X#X#X#X#X#X#X#X#X#X#X#X#X#X#X#X#X#X#X#X#X#X#X#X#X",
"#X#X+.#X#X#X#X#X#X#X#X#X#X#X#X#X#X#X#X#X#X#X#X#X#X#X#X#X#X#X#X#X#X#X#X#X#X#X#X#X#X#X#X#X#X#X#X#X#X#X#X#X#X#X#X#X#X#X#X#X#X#X#X#X#X",
"#X#X@.>.#X#X#X#X#X#X#X#X#X#X#X#X#X#X#X#X#X#X#X#X#X#X#X#X#X#X#X#X#X#X#X#X#X#X#X#X#X#X#X#X#X#X#X#X#X#X#X#X#X#X#X#X#X#X#X#X#X#X#X#X#X",
"#X&.@.+.#X#X#X#X#X#X#X#X#X#X#X#X#X#X#X#X#X#X#X#X#X#X#X#X#X#X#X#X#X#X#X#X#X#X#X#X#X#X#X#X#X#X#X#X#X#X#X#X#X#X#X#X#X#X#X#X#X#X#X#X#X",
"#X=.8.:.%.#X#X#X#X#X#X#X#X#X#X#X#X#X#X#X#X#X#X#X#X#X#X#X#X#X#X#X#X#X#X#X#X#X#X#X#X#X#X#X#X#X#X#X#X#X#X#X#X#X#X#X#X#X#X#X#X#X#X#X#X",
"#X>.q.6.@.&.#X#X#X#X#X#X#X#X#X#X#X#X#X#X#X#X#X#X#X#X#X#X#X#X#X#X#X#X#X#X#X#X#X#X#X#X#X#X#X#X#X#X#X#X#X#X#X#X#X#X#X#X#X#X#X#X#X#X#X",
"#X>.q.8.@.=.#X#X#X#X#X#X#X#X#X#X#X#X#X#X#X#X#X#X#X#X#X#X#X#X#X#X#X#X#X#X#X#X#X#X#X#X#X#X#X#X#X#X#X#X#X#X#X#X#X#X#X[.#X#X#X#X#X#X#X",
"#X-.q.9.@.@.=.#X#X#X#X#X#X#X#X#X#X#X#X#X}.#X#X#X#X#X#X#X#X#X#X#X#X#X{.(.~.^.^.^.~.e.y #X#X#X#X#X#X#X#X{.].(.U.^.Q.Y.#X#X#X#X#X#X#X",
"#X&.9.0.;.@.+.#X#X#X#X#X#X#X#X#X#X#X#X#XK.E.E.Q.~.Y.Y.}._.#X#X#X(.E.P.K.K.E.E.h.a ; - < H A.#X].~.P.K.J.J.K.K./.E.~.#X#X#X#X#X#X#X",
"#X#X6.q.,.@.@.>.#X#X#X#X#X#X#X#X#X#X#X#XQ.H.C.D.H.H.J.J.J.E.Y.Y.K.K.E.P.J.c.C , ; a o.D.J.H./.L.E.H.C.N.M.z.l.N.K.}.#X#X#X#X#X#X#X",
"#X#X,.q.<.@.@.@.#X#X#X#X#X#X#X#X#X#X#X#XI.J.z.i.a.l.z.M.D.E.K.K.H./.E.P.r.1 = 1 2.F.H.E.D.S.J.P.D.a.i.i.i.i.l.G.W.#X#X#X#X#X#X#X#X",
"#X#X*.0.9.;.@.@.*.#X#X#X#X#X#X#X#X#X#X#X].L.F.z.i.i.i.i.z.J.y.J r w i C , ; C x.K.E.S.w.o.w.Z.J.H.m.i.i.i.a.F.J.Q.#X#X#X#X#X#X#X#X",
"#X#X#X6.q.,.@.@.@.#X#X#X#X#X#X#X#X#X#X#X#XQ.E.F.l.i.i.a.H. .; - = - - - -  .H.P.J.J.m.w.N.N.a.C.J.F.a.i.a.H.J.P.{.#X#X#X#X#X#X#X#X",
"#X#X#X,.0.8.@.@.@.=.#X#X#X#X#X#X#X#X#X#X#X{.E.K.F.l.i.Z.l., = = = = = = - l.P.L.J.J.J.K.p.W Q o./.P.C.a.F.B.1.} b #X#X#X#X#X#X#X#X",
"#X#X#X#X6.q.,.@.@.@.=.#X#X#X#X#X#X#X#X#X#X#X].Q.P.H.M.E.o.- - = = = = = = r.W.P.J.J.L.F.1 t C O.H.J.J.H.L.F.T.#X#Xz #X#X#X#X#X#X#X",
"#X#X#X#X=.9.8.@.@.@.=.#X#X#X#X#X#X#X#X#X#X#X#X#X~.K.K.P.2.- = = = = = - , N.J.J.J.J.P.S.: < a x.G.J.J.K./.#X#X#X#X#Xz #X#X#X#X#X#X",
"#X#X#X#X#X=.6.;.@.@.@.-.#X#X#X#X#X#X#X#X#X#X#X#X#XY.L.m.1 = = = = = = - R J.J.J.J.J.H.K.x.! m.P.J.J.L.H.7.#X#X#X#X#Xz #X#X#X#X#X#X",
"#X#X#X#X#X#X@.<.<.@.@.+.#X#X#X#X#X#X#X#X#X#X#X#X#X#XQ.C = ; w , ; ; 1 R H.).|.|.|.).!.L.K.J.J.E.J.J.J.K.#Xl #X#X#X#X#X#X#X#X#X#X#X",
"#X#X#X#X#X#X*.<.9.:.@.@.*.#X#X#X#X#X#X#X#X#X#X#X#X#Xy.; - M F.v.r.u.Z. XoXOX+X+X+X+XOXoX X!.K.J.J.J.J.J.{.#X#Xb b #X#X#X#X#X#X#X#X",
"#X#X#X#X#X#X#X=.:.@.@.@.@.#X#X#X#X#X#X#X#X#X#X#X#X#Xa - < h.E.P.J./.oX@X@X`.+X+X+X+X'.OX+XoX|.P.J.J.J.J.R.#X#X#X#X#X#X#X#X#X#X#X#X",
"#X#X#X#X#X#X#X#X$.@.@.@.@.#.#X#Xz #X#X#X#X#X#X#X#X#X; ; 2.E.J.J.P..X+X+X+X1 XX@X+X+Xa f.@X+X+X|.J.J.J.J.}.#X#X#X#X#X#X#X#X#X#X#X#X",
"#X#X#X#X#X#X#X#X#X+.@.@.@.m k k x #X#X#X#X#X#X#X#X#X- a E.E.J.J.L.oX+X+X+X1.@X+X+X+X5.XX+XOX+X.XL.P.J.J.R.#X#X#X#X#X#X#X#X#X#X#X#X",
"#X#X#X#X#X#X#X#X#X#X$./ n n k k f.#X#X#X#X#X#X#X#X#X; h.!.J.J.J.J. X+X+X+X+X+X+X+X+X+X+X+X+X+X XJ.J.K.E.d.#X#X#X#X#X#X#X#X#X#X#X#X",
"#X#X#X#X#X#X#X#X#X#X#X/ ,.m k k B.#X#X#X#X#X#X#X#X#Xu Z.K.J.J.J.J.P. XoXOXOX+X+X+X+XOXOXoX.X|.P.J.J.K.S.#X#X#X#X#X#X#X#X#X#X#X#X#X",
"#X#X#X#X#X#X#X#X#X#Xz ,./ k k Y J _.#X#X#X#X#X#X#X#X#Xj.F.J.J.J.J.J.J.!.!.).).).).).).!.H.H.P.J.J.J.F.j.#X#X#X#X#X#X#X#X#X#X#X#X#X",
"#X#X#X#X#X#X#X#X#X#Xb ,.m k v t. .C g.#X#X#X#X#X#X#X#X#Xa.F.J.J.J.J.J.D.p.r.w.r.i.i.i.i.p.D.P.J.J.H.x.d.#X#X#X#X#X#X#X#X#X#X#X#X#X",
"#X#X#X#X#X#X#X#X#X#X#Xm m v t.E.u.2 j I.].#X#X#X#X#X#X#Xd.p.N.P.J.J.J.C.z.N.F.J.J.J.J.J.J.J.J.J.C.a.c.(.].#X#X#X#X#X#X#X#X#X#X#X#X",
"#X#X#X#X#X#X#X#X#X#X#Xx c 3.P.D.E 2 2 2.J.~.T.#X#X#X#X#X[.n.i.l.C.G.J.E.!.P.J.J.J.J.J.J.E.F.C.z.i.l.D.J.L.!.K.~.~.[.#X#X#X#X#X#X#X",
"#X#X#X#X#X#X#X#X#X#X#X#X#X#X].k.S t t 3.J.E.L.P.~.^.^.~.H.E.Z.a.i.a.z.M.C.D.F.F.F.S.N.m.z.a.i.a.N.G.K.J.J.H.H.J.J.P.^.A.#X#X#X#X#X",
"#X#X#X#X#X#X#X#X#X#X#X#X#X#X#X#X#XV.B.P.K.J.J.J.J.J.J.J.J.J.J.H.N.z.p.i.u.i.i.i.i.i.i.i.p.z.N.G.P.J.J.J.J.J.J.J.J.E.L.W.}.#X#X#X#X",
"#X#X#X#X#X#X#X#X#X#X#X#X#X#X#X#X#X#X#X~.K.J.E.J.J.J.J.J.J.J.J.J.J.H.F.C.N.M.M.M.M.M.N.S.H.P.J.J.H.P.J.J.J.J.J.J.J.J.H.E.J.R.#X#X#X",
"#X#X#X#X#X#X#X#X#X#X#X#X#X#X#X#X#X#X#X#XY./.E.L.K.J.J.J.E.J.J.J.J.J.J.J.J.J.J.J.J.J.J.J.J.J.J.J.J.J.P.M.z.l.z.m.Z.E.J.J.J.G.#X#X#X",
"#X#X#X#X#X#X#X#X#X#X#X#X#X#X#X#X#X#X#X#X#X#Xb.m.M.N.N.N.C.H.J.J.J.J.J.J.J.J.J.J.J.J.J.J.J.J.J.J.J.J.J.C.u.g.d.#Xd.b.P.E.J.P.(.#X#X",
"#X#X#X#X#X#X#X#X#X#X#X#X#X#X#X#X#X#X#X#X#X#X#X#Xg.s.i.p.S.E.J.J.J.J.J.J.J.J.J.J.J.J.J.J.J.J.J.J.J.J.J.J.n.#X#X#X#X#XY.P.J.J.~.#X#X",
"#X#X#X#X#X#X#X#X#X#X#X#X#X#X#X#X#X#X#X#X#X#X#X#X#X#X#Xz.H.J.J.J.J.J.J.J.J.J.J.J.J.J.J.J.J.J.J.J.J.J.J.J.D.#X#X#X#X#X#XP.J.J.I.#X#X",
"#X#X#X#X#X#X#X#X#X#X#X#X#X#X#X#X#X#X#X#X#X#X#X#X#X#X#XZ.K.L.J.J.J.J.J.J.J.J.J.J.J.J.J.J.J.J.J.J.J.J.J.J.E.A.#X#X#X#XT.H.E.W.(.#X#X",
"#X#X#X#X#X#X#X#X#X#X#X#X#X#X#X#X#X#X#X#X#X#X#X#X#X#Xd./.J.J.J.J.J.J.J.J.J.J.J.J.J.J.J.J.J.J.J.J.J.J.J.J.J.U.g.#X#X#XI.J.P./.#X#X#X",
"#X#X#X#X#X#X#X#X#X#X#X#X#X#X#X#X#X#X#X#X#X#X#X#X#X#XV.E.J.J.J.J.J.J.J.J.J.J.J.J.J.J.J.J.J.J.J.J.J.J.J.J.P.~.U.F.H.E.K.E.K.A.#X#X#X",
"#X#X#X#X#X#X#X#X#X#X#X#X#X#X#X#X#X#X#X#X#X#X#X#X#X#XY.J.J.J.J.J.J.J.J.J.J.J.J.J.J.J.J.J.J.J.J.J.J.J.J.J.E.P.Z.F.P.K.K.~.[.#X#X#X#X",
"#X#X#X#X#X#X#X#X#X#X#X#X#X#X#X#X#X#X#X#X#X#X#X#X#X5 Q x.H.G.J.J.H.J.J.J.J.J.J.J.J.J.J.J.J.J.J.J.J.J.J.K.J.E.O.w.E.J.~.#X#X#X#X#X#X",
"#X#X#X#X#X#X#X#X#X#X#X#X#X#X#X#X#X#X#X#X#X#X#X#X#X7 3 0 B w.v.G.J.W.K.J.J.J.J.J.J.J.J.J.J.J.J.J.J.K.J.L.Z.w.B ! K.~.#X#X#X#X#X#X#X",
"#X#X#X#X#X#X#X#X#X#X#X#X#X#X#X#X#X#X#X#X#X#X#X#X#X6 3 3 3 M ~ G Q y.D.J.J.J.J.J.J.H.J.J.J.J.J.J.Z.y.X.F 4 > 3 V {.#X#X#X#X#X#X#X#X",
"#X#X#X#X#X#X#X#X#X#X#X#X#X#X#X#X#X#X#X#X#X#X#X#X#X8 3 3 3 A ~ i 3 > 0 B R O.r.h.1.Y T 3.O.Q F M 0 Z ~ I 9 3 > 5 #X#X#X#X#X#X#X#X#X",
"#X#X#X#X#X#X#X#X#X#X#X#X#X#X#X#X#X#X#X#X#X#X#X#X#X{ Z q 4 G ~ i 3 3 3 3 3 3 4 r r 4 4 s r > 3 3 > q ) ) f 3 0 d #X#X#X#X#X#X#X#X#X",
"#X#X#X#X#X#X#X#X#X#X#X#X#X#X#X#X#X#X#X#X#X#X#X#X#X{ ~ I G L ~ M 3 3 > > > 3 r h s 9 3 w s > > > 3 0 I ~ Z Z L ] #X#X#X#X#X#X#X#X#X",
"#X#X#X#X#X#X#X#X#X#X#X#X#X#X#X#X#X#X#X#X#X#X#X#X#X{ ~ ~ ~ ~ ~ L A N f q 0 9 4 r s 9 9 h e 0 q i M Z ~ ~ ^ ) ~ ] #X#X#X#X#X#X#X#X#X",
"#X#X#X#X#X#X#X#X#X#X#X#X#X#X#X#X#X#X#X#X#X#X#X#X#X[ ) ) ~ K I ) ~ ~ ~ ~ ~ ~ I L D v v D ~ ~ ~ ~ ~ ~ ~ K L ^ ~ ' #X#X#X#X#X#X#X#X#X",
"#X#X#X#X#X#X#X#X#X#X#X#X#X#X#X#X#X#X#X#X#X#X#X#X#X#X) I G L ) ~ ~ ~ ~ ~ ~ ~ ~ ~ ) ~ ~ ~ ~ ~ ~ ~ ~ ~ ~ ~ K K I P #X#X#X#X#X#X#X#X#X",
"#X#X#X#X#X#X#X#X#X#X#X#X#X#X#X#X#X#X#X#X#X#X#X#X#X#XK A L ~ ~ ~ ~ ~ ~ ~ ~ ~ ~ ~ ~ ~ ~ ~ ~ ~ ~ ~ ~ ~ ~ ~ ~ K A P #X#X#X#X#X#X#X#X#X",
"#X#X#X#X#X#X#X#X#X#X#X#X#X#X#X#X#X#X#X#X#X#X#X#X#X#XL I ~ ~ ~ ~ ~ ~ ~ ~ ~ ~ ~ ~ ~ ~ ~ ~ ~ ~ ~ ~ ~ ~ ~ ~ ~ ~ I U #X#X#X#X#X#X#X#X#X",
"#X#X#X#X#X#X#X#X#X#X#X#X#X#X#X#X#X#X#X#X#X#X#X#X#X#X` ) ~ ~ ~ ~ ~ ~ ~ ~ ~ ~ ~ ~ ~ ~ ~ ~ ~ ~ ~ ~ ~ ~ ~ ~ ~ ~ ~ _ #X#X#X#X#X#X#X#X#X",
"#X#X#X#X#X#X#X#X#X#X#X#X#X#X#X#X#X#X#X#X#X#X#X#X#X#X' ~ ~ ~ ~ ~ ~ ~ ~ ~ ~ ~ ~ ~ ~ ~ ~ ~ ~ ~ ~ ~ ~ ~ ~ ~ ~ ~ ~ ) #X#X#X#X#X#X#X#X#X",
"#X#X#X#X#X#X#X#X#X#X#X#X#X#X#X#X#X#X#X#X#X#X#X#X#X#X( I ~ ~ ~ ~ ~ ~ ~ ~ ~ ~ ~ U ` ` U ~ ~ ~ ~ ~ ~ ~ ~ ~ ~ ~ ~ ~ #X#X#X#X#X#X#X#X#X",
"#X#X#X#X#X#X#X#X#X#X#X#X#X#X#X#X#X#X#X#X#X#X#X#X#X#X#XA I | ^ ~ ) ~ ~ ~ ~ _ [ #X#X#X#X( _ ~ ~ ~ ~ ) ~ ) ^ L i f #X#X#X#X#X#X#X#X#X",
"#X#X#X#X#X#X#X#X#X#X#X#X#X#X#X#X#X#X#X#X#X#X#X#X#X#X#XM K t.5.~ ~ ) ~ ~ ~ ( #X#X#X#X#X#X( L I ) ~ X.| c.v.f 8 7 #X#X#X#X#X#X#X#X#X",
"#X#X#X#X#X#X#X#X#X#X#X#X#X#X#X#X#X#X#X#X#X#X#X#X#X#X#Xp p 4.Z. .| t.) L ` #X#X#X#X#X#X#X#XS i ~ | c.w.E.Q.6 #X#X#X#X#X#X#X#X#X#X#X",
"#X#X#X#X#X#X#X#X#X#X#X#X#X#X#X#X#X#X#X#X#X#X#X#X#X#X#X#X#X#X~.h.t.Z.t.V ( #X#X#X#X#X#X#X#Xg 5 ..u.L.F.K.U.#X#X#X#X#X#X#X#X#X#X#X#X",
"#X#X#X#X#X#X#X#X#X#X#X#X#X#X#X#X#X#X#X#X#X#X#X#X#X#X#X#X#X#XU.F.F.H./.#X#X#X#X#X#X#X#X#X#X#X#X[.H.K.J.E.A.#X#X#X#X#X#X#X#X#X#X#X#X",
"#X#X#X#X#X#X#X#X#X#X#X#X#X#X#X#X#X#X#X#X#X#X#X#X#X#X#X#X#X#X#XO.r.O.e #X#X#X#X#X#X#X#X#X#X#X#X#Xo.y.u.O.#X#X#X#X#X#X#X#X#X#X#X#X#X",
"#X#X#X#X#X#X#X#X#X#X#X#X#X#X#X#X#X#X#X#X#X#X#X#X#X#X#X#X#X#X*   X X O #X#X#X#X#X#X#X#X#X#X#X#X#Xo X X . % #X#X#X#X#X#X#X#X#X#X#X#X",
"#X#X#X#X#X#X#X#X#X#X#X#X#X#X#X#X#X#X#X#X#X#X#X#X#X#X#X#X#X#X# . . X . & #X#X#X#X#X#X#X#X#X#X#X#X. . . X O #X#X#X#X#X#X#X#X#X#X#X#X",
"#X#X#X#X#X#X#X#X#X#X#X#X#X#X#X#X#X#X#X#X#X#X#X#X#X#X#X#X#X#X+ @ $ . # #X#X#X#X#X#X#X#X#X#X#X#X#X@ . O # + #X#X#X#X#X#X#X#X#X#X#X#X",
"#X#X#X#X#X#X#X#X#X#X#X#X#X#X#X#X#X#X#X#X#X#X#X#X#X#X#X#X#X#X#X#X% & #X#X#X#X#X#X#X#X#X#X#X#X#X#X#X#X% #X#X#X#X#X#X#X#X#X#X#X#X#X#X",
"#X#X#X#X#X#X#X#X#X#X#X#X#X#X#X#X#X#X#X#X#X#X#X#X#X#X#X#X#X#X#X#X#X#X#X#X#X#X#X#X#X#X#X#X#X#X#X#X#X#X#X#X#X#X#X#X#X#X#X#X#X#X#X#X#X",
"#X#X#X#X#X#X#X#X#X#X#X#X#X#X#X#X#X#X#X#X#X#X#X#X#X#X#X#X#X#X#X#X#X#X#X#X#X#X#X#X#X#X#X#X#X#X#X#X#X#X#X#X#X#X#X#X#X#X#X#X#X#X#X#X#X"
};
