/* XPM */
static char *_670539632787[] = {
/* columns rows colors chars-per-pixel */
"65 65 73 1 ",
"  c #262A33",
". c #292D37",
"X c #2C2F3C",
"o c #2D313D",
"O c #2B2E42",
"+ c #30294E",
"@ c #2D3243",
"# c #2F3449",
"$ c #323445",
"% c #343947",
"& c #31364A",
"* c #353A4C",
"= c #393C4C",
"- c #343553",
"; c #363B53",
": c #393E54",
"> c #393E59",
", c #403C57",
"< c #3C414F",
"1 c #3C4255",
"2 c #3E4459",
"3 c #3F4660",
"4 c #424554",
"5 c #444857",
"6 c #41465B",
"7 c #434A5C",
"8 c #494D5C",
"9 c #49515E",
"0 c #444663",
"q c #464D61",
"w c #484F63",
"e c #4B4C6C",
"r c #475061",
"t c #4B5265",
"y c #4F5966",
"u c #4E5569",
"i c #4F586B",
"p c #515666",
"a c #525967",
"s c #50576C",
"d c #525A6D",
"f c #585E6F",
"g c #4F5970",
"h c #525771",
"j c #555D72",
"k c #585F74",
"l c #576075",
"z c #5A6176",
"x c #5C657A",
"c c #5E697D",
"v c #60677C",
"b c #626A7E",
"n c #5F6A80",
"m c #646D82",
"M c #686F84",
"N c #667186",
"B c #697186",
"V c #677288",
"C c #6C758A",
"Z c #6E798E",
"A c #70778D",
"S c #71798E",
"D c #6F7A90",
"F c #747D93",
"G c #778097",
"H c #788097",
"J c #778298",
"K c #7C849B",
"L c #7F889E",
"P c #80879F",
"I c #80889F",
"U c #848BA3",
"Y c None",
/* pixels */
"YYYYYYYYYYYYYYYYYYYYYYYYYYYYYYYYYYYYYYYYYYYYYYYYYYYYYYYYYYYYYYYYY",
"YY2222022q730qqqrrrettreuutuuuueuguighhsigheeeeYYYYYYYYYYYYYYYYYY",
"Y2662r27q7qqqqqqerrettuetuuuuuuigsgsjsjijijdjjgjjjjj0+4445568897Y",
"Y22222r72q2rqqrrrrrrtttuutuuiuiiiishigijhijjjjjjjjjju,4455888998Y",
"Y226662732qqqqqrqqteretutuuuuuiisihigihjjgjjdjgjjjjju1455579799tY",
"Y2662227rq7qqqqqq0ttutttuuuugeiigsissjsiijhdjjjjsujjr4545799599tY",
"Y26221277qqqqqrrttttttuueuuuttitssihdsjdihjjgjjjsqjjw445599999y9Y",
"Y2667777370qqqtqtr30ttwutuuuerggdiiijgijuiisjdgjjjjj84855999ry99Y",
"Y22277q2qrqqqtqtwwqqeuuuiuiuiidsjiijgghjgjjghhjjhjkh55559999999yY",
"Y227222qq7qqqrttuwuuuuqtidshhsjdjjjjjjkjkhjjkhgjjhhs55885999ayyyY",
"Y22772277qqqrre3tutuuueuishdjsdjjjjjkjjkkkzkkkkkjjpp55889999yyayY",
"Y2223r7qqrqqtur2ttuuuiiushiijjhjjjkhjkjkkkkkkkkkkkk8588899y9yyiyY",
"Y2272r7qqqqrtetqueuuuiiiiihdsjhjjjjkkkkkkkxkkknkvkk858889yayiaayY",
"Y111222rqqtrtttuuuuuuishdjhjjdjjhjjkkjkklkkkkxkkkkk5888ppuaaaffrY",
"Y#<11222237qqttuuuuusiusshdjjjjjjkkkkkkkkkkkkkkkkxj4888pypaafyy2Y",
"Y@####*;12223223qweuuhsdjdujjjjjjjkkkkkkzzkxnknkvzw48899ppyy9992Y",
"YY&*####&&;;;122222q3rruuiihjjjjjjkjkkxkkkkxkxkxkk7,58855544444:Y",
"YY66221;;*#;&#&;1112277277qqeidjjkkkkkjzkvkknkxxxk,4,4444,====**Y",
"Y0uuuuuut7qqq22111;;-;111226777qqqwuusujkkkxkvxxkfo$=%%%o%==%%*%Y",
"Yeusuuuut7tuuuiurrrq22111;11:122606qqqrrwseshkjjh8o$$$$$%%%%*=:-Y",
"Yuddidiiiuuuuuuuuuuuirirtrw7721=*&&*:12207qq9qqr8$X$$$$$$167wsseY",
"Yuffdddddiiddptpuuuuiiiuruututtttr961*%@oXX@o@@@X  X$%25truuwwpwY",
"Yslffflfdfddpidsaiudiuiuuiuutytuuturtwtrr61%$o.   X*116657qqwq86Y",
"Yjzllllljjjjdddddddddiiiiiiiuyuuutuuttttrwr77641%oo@%%::2224666>Y",
"Yjxxkkvkkkkkkhdddddjidddddiiiiuiyuuuurrurtrw8w7792<%o<o<*:<<1<1*Y",
"Yzvxvkvhvkxkkkkdfddjjjjdddjdddssuuiiuuuutrttrrww9392221<&%######Y",
"Yxvvvvvvvvxkkkkkffldjdjjjjddddddsssiuuyttuurrtrw9393232222<*@OOOY",
"svmmvnnnvvvvvvvkllllfjjjjjljjdjdadaiuyuuuuuutttw9y399393651111%OY",
"hmMmkmmnmvvvvvvxxzkdpljjjjlfjdfdjdddsussiiu7tty32399939229921111Y",
"hmBMnmmMMMmmmmvvxxxkkzxllllllljjdjlddsdaiiiuiiit99y3392922222221Y",
"kMBBMBMMmMMvmmmvbccxzxzlzzzzlljjlfdjddddijiitittyr93939292222212Y",
"kMACABAABBMMmmmmmbvvxlxzzzzzzlzzljljljdfigiiiyityr9y993929923212Y",
"kMAAAAAACMCBBMMMmmmmvxxxxxxzzzzkllkkjjjddddiisutttt9ww7777777622Y",
"YAFAAAAAAAACACBMMMmmmmvxxxxxxxzxzzzllljljdjjsiuttturrwwq7w777662Y",
"YSSFSSSSAAAACCAMBBMMmmmvlvxxxxxkzzzzlllljfdjdiuuuutrtwwww8q77672Y",
"YSHSHHFSFSAAMMAACCBMMMmmxvxcxxxkxxxzzzzjlluddiiuuuruttrrw7777776Y",
"YSKHHHHFFFFFFSSAACCCBMMMmbbvvcxxxxxxxzzzljdidiiiuuurtrrtrww77727Y",
"YFKKKHHHFFFFFFFSAACCCCBMMmmbxcvccvxxxxzzlldfddiiuuuuurtrrrqq9777Y",
"YAKKKKHKHMFFFFFFACAACCCCNmmbkcvccxcxxxxzdjjdddjiyiuuu6rtrrqqq773Y",
"YAPPPKPKKHHKFKFFSCFAACCVVMMMmmmnbvbxczzlljjjjjasiiuuururttrrq7q7Y",
"YAPPULLKFPFPFPFFFFFFFAACCVVMMmmbbmcxlizllllddjdidiiiuuutttwww7q7Y",
"YvCHUPKUUUUFUFUFFFFFFFSAACCMvmmmbbxzzlzzlllllduudiiauuurtttwqwqqY",
"YjjFUUUUUFUUPUFFUFFFFFFAACCCmMMncxxxxzxzzlljldudddssyuuuuwttwqw7Y",
"YqkxCPUUUUUUUFUPFFUFFFFFFSCCBMmxccxxxxzllllljljddjdsiiuututwwwqqY",
"Y;2gxMFUUUUUUUFUFFPFFFFFFFCVMmmnccxvxxlxyjzllljjjjdidiiiuuutrtwqY",
"Y#;;wkcFUUUUUUUUUUFUFUFFFCCVVmmnbccccxxxzzzzlllljdjdasiuuu7qtrw7Y",
"Y---;3jnVFUUUUUUUFUFFUFFZCCCVMMmmnccccxxxxzzllljldjdddiiuu7rttw>Y",
"Y-;-;;;unVFUUUUUUUUFUFSFFSCCVVMmmvcnvccxxxxzllllljjjddiyuuuutt6YY",
"Y----;;>qknDKUUULULKJFFFFDDZCVVmNbccccccxxxlxzzljjjdiijdiyuuu7&YY",
"YY;*;;;;;2unNFUULLLKKKKJFFDZZCBVNNbcccccxxcxlzzljiljjjiiiiuu9#%;Y",
"Y,84,;->>;>3jnDKLLLJKKFFFFDZVmVVNbcNNccclcxxclzljudlijjiiiir*<11Y",
"Y4w885,,;>>>2gnVDJFJLJKFFFDDVmCVVNNcNcccjxxxcxzzljlljjjjiir111*<Y",
"Y7p8p88,1;;>>>3gnVDJLKKJJFFFFDCCVNNbcmcccccxxxxzzlljjjjiir<1<111Y",
"Y08pppppt22>>>>3unVDJLLJLFFFDDZCVVNNNmmcccccxzlzzlllljjju;111272Y",
"Ywfffpppspu51>>2>3gnVFJKKFJFFDDCVVNNNcNccccxxxxzzziljjdr*<1127rqY",
"Ypffpffffdsur2>>>22exVDJJJJFDVZCZVNNNNcNcccccxcxxzzlljr<111177qqY",
"Yavfafvffffaaap4>:>22gmCGJJGGVDCZVVVNNbNmncccxczclllj3<11277rrrtY",
"Yavbvfvbzffffappw5>>>>0knVGJGGDDSVVVNNNbnnmccccxxlxlr*<133rruidiY",
"Yfbbbvbbvvfffffappw52>>23xVDDGDDZCVVNNNNnNczcccxxlj2*12597tisdjjY",
"Yzbbbbbbvvvzvffffpp976>>13gnVDGDZZCVNNNbNnncccxcll2#112299yifkzkY",
"YzBMbbbbbbvvffvffdppt85112>3gVCCDDCVNNNNVnNnncnxl1#12299ttdjzxvdY",
"Ypvvcbbbbbbxvap9ty9888851;>>23nVZDCCVNNNnNNnnnxg1##1227ruifjlls6Y",
"Y-48ruyyayyytu99751:=====*#;;133nNVCVVNNNnNnnlu##O@#***;;::::;:;Y",
"Y-*=;;112426224411=:==%$$o@oO#--3glxcxcxnlllg3;#OO@@##&****;:;;;Y",
"YYY->>->>>>>,,>>>-,---+++YYYYYYYYYYYYYYYYYYYYYYYYYYYY------->>-YY"
};
