/* XPM */
static char *result[] = {
/* columns rows colors chars-per-pixel */
"65 65 225 2 ",
"   c #4A91B2",
".  c #4B91B2",
"X  c #4A91B4",
"o  c #4E94B5",
"O  c #4E96B7",
"+  c #5398B7",
"@  c #5399B7",
"#  c #589EBD",
"$  c #5D9FBC",
"%  c #64A4BF",
"&  c #65AAC3",
"*  c #64ABC3",
"=  c #66ACC5",
"-  c #69A8C2",
";  c #69AEC6",
":  c #6CACC5",
">  c #6BB2C7",
",  c #69B0C8",
"<  c #6AB0C8",
"1  c #6BB1C8",
"2  c #6DB2C9",
"3  c #6DB4CB",
"4  c #72B1C9",
"5  c #77B3CA",
"6  c #70B4CB",
"7  c #70B6CD",
"8  c #73B6CC",
"9  c #71B7CE",
"0  c #7CB7CC",
"q  c #73B9CF",
"w  c #76B9CE",
"e  c #76BACE",
"r  c #77BACE",
"t  c #74BBD0",
"y  c #77BBD0",
"u  c #74BCD2",
"i  c #77BCD2",
"p  c #77BDD2",
"a  c #77BFD4",
"s  c #7CBBD0",
"d  c #79BCD1",
"f  c #79BED3",
"g  c #7CBDD1",
"h  c #7FBDD0",
"j  c #7EC0D2",
"k  c #7FC0D2",
"l  c #79C0D4",
"z  c #7BC0D4",
"x  c #79C2D6",
"c  c #7DC1D4",
"v  c #7CC1D5",
"b  c #7EC2D6",
"n  c #7CC5D8",
"m  c #7EC7DA",
"M  c #85BDD0",
"N  c #80C0D3",
"B  c #84C5D3",
"V  c #80C3D6",
"C  c #84C2D4",
"Z  c #87C3D5",
"A  c #80C4D7",
"S  c #81C5D7",
"D  c #83C4D6",
"F  c #86C5D6",
"G  c #8AC4D6",
"H  c #8BC7D7",
"J  c #88C8D7",
"K  c #8EC8D7",
"L  c #82C6D9",
"P  c #84C6D8",
"I  c #88C7D8",
"U  c #80CADB",
"Y  c #86C9D9",
"T  c #84C8DA",
"R  c #86CADB",
"E  c #81CBDD",
"W  c #83CDDE",
"Q  c #89C9D8",
"!  c #89CBDB",
"~  c #8CC9D9",
"^  c #8FCBDB",
"/  c #8CCCDB",
"(  c #88CDDD",
")  c #8BCEDD",
"_  c #8ECEDD",
"`  c #8DCFDE",
"'  c #90CDDB",
"]  c #91CEDD",
"[  c #94CCDC",
"{  c #96CDDC",
"}  c #8FD0DD",
"|  c #8FD0DF",
" . c #90D0DC",
".. c #91D1DF",
"X. c #93D0DE",
"o. c #92D3DF",
"O. c #95D0DD",
"+. c #95D2DE",
"@. c #92D4DF",
"#. c #97D4DF",
"$. c #98D0DD",
"%. c #99D2DF",
"&. c #9DD3DF",
"*. c #84CFE0",
"=. c #87D0E0",
"-. c #87D3E2",
";. c #8BD0E0",
":. c #8ED3E2",
">. c #89D4E3",
",. c #8FD7E5",
"<. c #8BD8E6",
"1. c #8EDBE9",
"2. c #90D2E0",
"3. c #95D3E0",
"4. c #93D4E1",
"5. c #94D6E1",
"6. c #97D6E1",
"7. c #91D6E4",
"8. c #9BD2E0",
"9. c #9AD4E1",
"0. c #9CD4E2",
"q. c #9ED5E2",
"w. c #96D8E2",
"e. c #93D9E6",
"r. c #98D8E3",
"t. c #9ADAE3",
"y. c #9DD8E2",
"u. c #9DD9E3",
"i. c #9BD8E4",
"p. c #98DAE5",
"a. c #9ADBE5",
"s. c #9DDBE5",
"d. c #9BDCE6",
"f. c #9EDDE7",
"g. c #95DBE8",
"h. c #93DEEB",
"j. c #91DEEC",
"k. c #98DEEA",
"l. c #9DDEE8",
"z. c #A0D6E2",
"x. c #A3D8E3",
"c. c #A6D8E3",
"v. c #A0D8E4",
"b. c #A3DAE5",
"n. c #A5D9E5",
"m. c #A6DAE5",
"M. c #A2DDE5",
"N. c #A2DEE5",
"B. c #A1DDE6",
"V. c #A0DCE7",
"C. c #A7DCE5",
"Z. c #A5DCE7",
"A. c #AFDBE4",
"S. c #ACDDE7",
"D. c #A0DFE9",
"F. c #A3DFE8",
"G. c #A4DFE8",
"H. c #A8DFE8",
"J. c #B1DFE9",
"K. c #93E1EE",
"L. c #98E1ED",
"P. c #96E4F1",
"I. c #98E7F3",
"U. c #9CE6F0",
"Y. c #9BEBF5",
"T. c #9EEEF7",
"R. c #A0E1EB",
"E. c #A3E2EA",
"W. c #A6E2EB",
"Q. c #A3E3ED",
"!. c #A7E3EC",
"~. c #A5E4EE",
"^. c #ABE0E8",
"/. c #AAE1EA",
"(. c #ADE2EA",
"). c #AAE3EC",
"_. c #AFE3EC",
"`. c #AAE7ED",
"'. c #AAE6EF",
"]. c #ACE5EE",
"[. c #B0E1E8",
"{. c #B2E5ED",
"}. c #B0E6EE",
"|. c #B5E6EE",
" X c #B8E5EA",
".X c #B7E8EF",
"XX c #BAE8EE",
"oX c #A5E6F0",
"OX c #A8E7F0",
"+X c #A1EAF3",
"@X c #A4EFF6",
"#X c #A9E9F2",
"$X c #AEE8F1",
"%X c #ABEBF4",
"&X c #AFEEF6",
"*X c #B2E8F0",
"=X c #B4EBF2",
"-X c #B0ECF4",
";X c #B4EDF5",
":X c #B6EFF7",
">X c #BBEBF0",
",X c #BEEBF1",
"<X c #A1F1FA",
"1X c #A5F5FB",
"2X c #A9F1F8",
"3X c #AEF3FA",
"4X c #A9F7FC",
"5X c #AFF7FD",
"6X c #B1F0F8",
"7X c #B5F2FA",
"8X c #B7F5FB",
"9X c #B9F1F8",
"0X c #BBF4FA",
"qX c #BDF6FC",
"wX c #B8F8FD",
"eX c #BFF9FD",
"rX c #C1EDF2",
"tX c #C5EDF2",
"yX c #C5EFF3",
"uX c #C9F1F5",
"iX c #D0F2F5",
"pX c #D7F7FA",
"aX c #D9F7FA",
"sX c #E2FAFB",
"dX c None",
/* pixels */
"dXdXdXdXdXdXdXdXdXdXdXdXdXdXdXdXdXdXdXdXr j j j B B B J J J J  . . . . . . .M.M.M.y.y.y.N.N.N.dXdXdXdXdXdXdXdXdXdXdXdXdXdXdXdXdXdX",
"dXdXdXdXdXdX& * * > > < < < ; e e e e k k Z Z K K ' { 8.8.8.q.n.n.n.n.n.n.n.n.n.B.B.B.B.B.B.B.F.F.F.!.!.!.'.'.'.M.M.iXdXdXdXdXdXdX",
"dXdX< ; ; e e e k Z K K { &.z.m.S.J.S.H.S.(.C.H.C.b.b.b.Z.H.H./.(.(._._._.{..XXX,XyXuXuXuXuXyXyXuXyXyXrX,X>X>X>X>X>XpXpXpXpXsXdXdX",
"dX# K [ ^ ^ ^ ] 3.9.9.9.9.u.u.i.v.s.s.i.u.s.i.i.s.V.t.t.a.a.s.f.f.f.f.V.f.V.G.G._.,XyXyXyXyXyXyXuXyXuXrX}.}.}.}.*X.XrXuXaXaXaXsXdX",
"dX5 &.+...} } ..o.4.4.4.4.4.4.2.2.4.@.o.@.4.4.6.V.r.5.w.w.w.w.r.w.w.r.r.p.p.p.a.G..X,X,X,X,X,XrXrXrX,X{.E.E.W.W.W.).).}.*X=XyXaXdX",
"& Z X._ ) ) ) _ ` ` ` | | | 2.2.2.2.o.o.o.@.6.b.b.5.5.5.w.w.w.6.6.w.r.u.t.t.t.t.f.|.XX,X,X,X,X,XrXrX.XW.D.D.D.D.D.R.E.E.E.E.}.aXdX",
"& Z _ _ ) ) ` ` ) ` ` ` ` } ..o.4.4.5.5.3.6.b.(.u.#.#.#.#.6.6.6.6.#.u.b.i.r.6.r.b._.|.XXXX,X,XrXrXrX.XW.D.D.D.D.D.E.E.E.E.E.].aXdX",
"& Z _ _ ` _ } o.3.3.o.X.} X.X.X.X.X.] ] ^ [ &.z.~ ~ Q Q Q Q Q ~ ~ I ^ ^ H Q H H ^ $.&.&.z.x.c.C.S.S.C.u.i.i.V.G.E.W.E.D.R.E.].aXdX",
"& G _ _ _ +.X.X.] ] ^ ~ Q Q I F F C N N N N N N z g g g d d d d d y y d y y y w g g g h s h h h C C C C C C F ~ ^ X.#.G.D.E.}.aXdX",
"dXG ] } } z.H b z d d f f f z z z c v b A A A L L P P Y Y Y Y Y Y Y Y R R T Y Q ] X.] ] ^ ~ I F C g 9 6 3 , = = = = 8 H.D.D.*XaXdX",
"dXG ] } } z.V S T Y R ! ! ! / ) ) _ ` | | | 2.2.2.o.o.2.2.@.@.@.4.4.5.5.w.w.w.s._.|.|.|.|.|.|.|._.v.3.2.2.` ) ( T d = z.D.D.}.yXdX",
"dXK O.X.} z.D / } } } } } } } } } } } } | | | | 2.2...2.2.o.o.@.@.@.4.4.5.w.w.G._.{.|.|.|.|.|..X_.f.a.d.d.d.d.s.d.} , Z.D.D.].tXdX",
"dXK O.X...v.D / } } } } } | | } } } | } | | | | | 2.2.2.2.o.o.o.@.@.@.4.4.4.r.H._.{.{.{.|.|.|.|./.a.t.t.a.a.d.d.d.` 1 H.l.D.).{.dX",
"dXK %.X.X.v.D / ..} } } } } | | | | ` ) | ..| | | | 2.2.2.o.o.o.@.@.@.@.@.5.u./.(._._._.{.{.|.{.G.r.r.t.p.a.a.d.d.) 1 /.l.f.).`.dX",
"dX{ %.O.o.v.D / ..X.X.X.X.} ......| ! T ) ............2.2.o.o.o.@.@.@.4.4.5.V./.(._._._.{.{.{.(.s.r.r.r.p.p.a.a.a.) 1 /.d.f./.`.dX",
"dX{ %.O.+.x.D _ X.X.X.X.X.X.X.X.....2.2.} ..o.o.o.o.o.o.@.@.@.@.@.4.4.5.5.r.G./.(.(._._._._.{.H.t.6.r.r.4.) @.a.p.! 1 /.d.f.(.`.dX",
"dX8.9.+.+.x.D _ +.X.X.+.+.+.X.o.o.o.3.o.o.o.@.@.@.@.4.5.5.5.5.5.5.5.5.w.w.d./.(.(.(.(._._._._.V.w.6.6.r.w.4.5.t.r.! 2 H.a.f._.`.dX",
"dX8.&.%.%.m.D ] +.+.+.+.+.+.+.+.3.3.3.3.3.3.5.6.6.6.6.w.w.w.w.w.w.r.r.r.r.D././.(.(.(._._._./.s.w.w.w.w.w.6.6.r.w.Y 6 H.a.f.(.`.dX",
"dXn.q.%.%.m.F ] %.%.#.#.+.+.+.+...o.#.#.6.6.6.r.r.r.r.t.a.a.a.a.a.d.a.a.a.W.).).(.(.(._._._.G.i.w.w.w.w.6.6.6.w.w.Y 6 G.a.D./.E.dX",
"dXn.z.9.9.C.F ] %.%.#.#.#.#.#.} Y / #.6.r.r.r.t.a.a.s.d.l.l.l.l.l.l.l.l.D.).).).(.(._._._.(.V.r.w.w.w.w.5.5.6.w.5.Y 8 Z.V.f.(.E.dX",
"dXA.x.9.9.C.F X.%.%.9.9.9.9.9._ Y _ 6.i.i.t.s.d.f.f.f.l.D.D.D.D.R.D.D.D.W.].}.}._._._._._./.f.w.w.w.w.w.5.5.5.w.5.Y w G.H.s.|.E.dX",
"dXA.c.&.9.C.I X.9.9.9.9.9.9.9.3.4.6.6.u.s.s.f.f.D.D.D.R.Q.Q.Q.Q.Q.Q.Q.Q.].$X*X}.}.}.}._._.W.a.r.w.w.w.w.5.5.5.w.4.P y (.G.u.XXE.dX",
"dXA.C.q.0.S.I O.0.0.0.9.9.0.0.i.i.i.s.s.f.f.D.D.R.Q.Q.Q.~.oXoX~.oXoXoXOX$X*X*X*X*X*X}.}.}.W.d.r.w.w.w.w.5.5.5.5.@.P h XXr.u.|.B.dX",
"dXn.C.z.q.S.I O.0.0.q.0.q.q.q.v.s.s.V.V.D.D.E.Q.~.~.oXOXOXOX#X#X#X#X#X%X=X=X=X*X*X*X*X}.}.G.d.a.r.r.r.w.5.4.4.4.o.D h {.w.r.(.B.dX",
"dX5 m.z.q.S.Q +.q.q.q.q.v.v.v.v.V.V.V.D.G.E.W.~.~.OXOX#X#X%X%X%X%X%X%X-X;X;X=X=X=X*X*X*X].E.l.d.a.t.r.w.w.5.4.4.o.D s u.5.r./.B.dX",
"dXo x.v.z.S.Q +.q.q.q.z.v.v.b.b.V.V.G.G.W.W.~.OX#X#X%X%X-X&X&X&X&X&X&X:X:X:X:X;X=X=X=X*X].E.D.f.d.a.t.w.w.5.5.4...P s 6.5.w.H.B.dX",
"dXo x.x.x.S.~ +.z.z.z.z.v.x.b.b.Z.G.G.W.W.).OX#X$X%X-X&X&X&X6X6X6X6X6X9X9X9X9X:X;X;X=X=XOXQ.D.D.f.d.a.r.r.w.5.5.2.P s 5.4.6.C.F.dX",
"dX  c.c.x.S.~ %.z.x.x.x.x.b.b.Z.G.G.W.).).].$X$X-X&X&X&X6X7X7X7X7X7X7X8X0X9X9X9X:X:X;X-XOX~.E.R.D.f.d.t.r.r.w.5...D s 6.5.6.C.F.dX",
"dX  c.c.c.S./ %.x.x.x.b.b.b.Z.Z.H./.W.).].$X$X-X-X&X6X6X7X7X7X7X8X8X8XqX0X0X9X9X9X9X:X-XOX~.Q.Q.D.l.s.t.r.r.r.6.o.D g 3.5.6.C.F.dX",
"dX  x.c.m.J._ 9.x.b.b.b.Z.Z.Z.H./.).).].].$X-X-X;X6X6X7X7X7X8X8X8X8XqXqX0X0X0X9X9X9X:X-X#XOX~.Q.E.D.f.s.t.t.r.6.o.P g 6.5.r.S.F.dX",
"dX  &.x.S.J._ 9.m.m.m.Z.Z.Z.H./.).).].].$X-X-X;X:X7X7X7X8X8X8X8X8XwXqXqXqX0X0X9X9X9X:X-X#XOXOX~.E.D.f.s.u.t.t.r.3.P s 6.6.i.,X^.dX",
"dX  ~ %.O.$.! X.9.0.v.b.Z.Z.H./.).].].$X$X-X-X:X7X7X7X8X8XwXwXwXwXeXeXeXqXqXqX0X0X9X:X-X%X#XOX~.Q.R.D.f.s.s.t.r.3.P s 9.6.u.XX^.dX",
"dX  z.$.V D ! Y Y I / ] 3.i.V.G.W.).].$X-X-X-X6X7X7X8X8XwXwXwXwXwXwXeXeXeXeXqX0X0X9X&X%X#XOX~.Q.R.D.l.d.p.r.w.6...D g +.4.v.C.^.dX",
"dX  J.~ l V Y b f f c S T ! | 4.p.d.D.Q.~.oX#X%X2X3X3X3X5X5X5X5X5XwXwXwXwXwX8X8X7X6X%X+XoXQ.R.l.l.d.p.e.7.4.o..._ A s X.2.i.u.[.dX",
"dX  $.z p N ! b f f z b A m U W =.>.,.1.h.K.P.I.Y.T.<X<X1X1X4X4X4X5X5X5X5X3X3X3X2X2X+X+XU.R.l.k.p.p.e.7.:.:.2.2.) A s ..o.6.i.[.dX",
"dX  h d p c ! b f f l v n S U W =.>.<.1.j.h.h.I.Y.T.<X<X1X1X1X4X4X4X4X4X4X2X2X2X2X@X+XU.U.L.k.k.g.e.e.7.:.:.2.| ) A s ......i.[.dX",
"dX  d i p c ! b p p f l b n U E *.-.>.<.1.1.j.I.Y.Y.T.<X<X<X1X1X4X4X4X1X2X2X2X2X@X+X+XU.U.L.k.g.g.e.7.7.:.:.| | ) A s ..2.2.v. XdX",
"dX  d y u c ! v p p p l v n m E W =.>.<.1.j.K.P.I.Y.T.T.<X<X<X1X1X1X1X2X2X@X@X@X@X+XU.U.L.L.k.g.e.e.7.:.:.2.| ` ) S d 4.2.2.b. XdX",
"dX  g t t c ! c i i p f l n m U W *.>.<.<.1.j.K.P.I.Y.Y.T.<X<X<X<X<X<X@X@X@X@X+X+XU.U.U.L.k.g.e.e.7.7.:.;.;.;.) ( A d 3.` } v. XdX",
"dX  g t y c ! z i i u p l x n m E *.-.>.<.1.j.K.P.P.I.Y.Y.T.T.T.<X<X<X@X@X@X+X+X+XU.U.L.L.k.g.e.7.7.:.:.;.` ) ) ( A d #.` ` b.>XdX",
"dX  h q q N ! c i i t p a x n n U W *.-.>.<.1.j.K.P.P.I.I.Y.Y.Y.Y.T.T.T.Y.U.U.U.U.P.L.L.h.g.e.7.7.:.:.;.;.) ) ( ( V y #.) ` m.>XdX",
"dX  C t q N ! c t t t u p l x n m E W *.-.<.<.1.j.K.K.P.I.I.I.Y.Y.Y.Y.Y.I.1.e.L.P.L.L.h.h.g.,.7.:.:.;.;.) ( ( ! R V w 9.( ` m.tXdX",
"dXo h q 9 N ! z t q t t p a l n m m E W -.-.>.<.1.j.j.K.P.P.P.I.I.I.I.P.P.h.g.L.L.h.h.g.e.,.,.:.:.;.;.;.( ( ! R R V w 9.( ) b.tXdX",
"dXo w 9 8 N ! l q q q t p l l x n n U E *.-.-.>.<.1.1.j.K.K.K.K.P.P.P.K.K.L.h.h.h.h.1.,.,.:.:.;.=.;.;.( ( ! R R R V w 9.! ) b.tXdX",
"dXo 9 9 7 F / f q q q t u l l l x n m U E *.-.-.>.<.<.1.1.j.j.j.K.K.K.j.j.h.h.1.1.1.,.,.:.:.( L T ( ( ( R Y Y Y Y b w 9.! ) b.n.dX",
"dXo q 9 6 %.} f 9 9 q q t t p a l x n m U E *.*.-.-.>.<.<.<.1.1.1.1.1.1.1.1.1.<.,.<.>.>.;.;.( R R R R R R T T T T b w 0.Y ) x.' dX",
"dXo w 7 w S.3.d 9 9 9 q q q u u a l x n m U E W *.=.-.-.>.>.<.<.<.<.<.<.<.<.<.<.>.>.-.=.=.( ;.:.` R R R T T T T T b w 0.Y ! x.' dX",
"dX+ w 3 N c...y 7 7 7 9 9 q t u u a l x n m U U E W *.*.-.-.-.-.>.>.>.>.>.>.>.-.=.=.=.( W R ( ;.) T T T T T T T T b w 0.Y ! x.' dX",
"dX$ w 8 G [ _ y 7 7 7 7 7 9 q t u u a l x n n m m U E E W W *.*.*.=.=.=.=.*.*.W W W W R T T T T T L L L L L P P L c w 9.Y ! z.' dX",
"dX$ w d 8 H ` y 7 7 7 7 7 7 9 q t u u p a l x x n n n m U E E U U U E E E U U U U L L L L L L L S S V V S S S S S c y %.T Y O.' dX",
"dX% w 7 3 H ` t 3 3 7 7 7 7 7 9 9 q t u u p a l x x x n E E m m m m m m m m m m m S A A A V V V V V V V V V V V S c y 3.T Y _ ' dX",
"dX% 8 2 2 ~ | t 3 3 3 7 7 7 7 7 7 9 q t u u u a a a l x x n n x n n n n n n n n n b b b b b b b b b b b V V V V V c d %.L P / ' dX",
"dX$ 6 2 1 ^ 3.w 2 3 3 3 3 7 6 7 7 9 9 q q q t t u u p p p a l a l l l l l l l l z z z v c v b v b b b b V V V V V c y %.S P ^ K dX",
"dX% 6 1 1 ^ 9.y 2 2 3 3 3 3 3 7 7 7 7 7 9 9 q q t t t u u p p p p f f f f f f f f f f z z z v v v b b b b V V A A c y %.S P / ' dX",
"dX- 2 , 1 [ S.H d q 9 7 7 7 7 7 6 6 7 7 7 7 9 9 q q q q t t t y y i i i i i p p f f f f f z z z v v v v v v b b v f y $.A S ! { dX",
"dX: 1 , 1 $.XXJ.x.3./ L A A b c z f f d y y y t y y y y y t i i i i i f f f f f f f f f f f f f f f f f i i y t t q g %.A A Y 8.dX",
"dX5 2 , , N c.S.C.c.z.%.] ] ] _ _ _ / / / ! Q Y Y P P P S V V V A V b b b V V V V V D S D P F D D C D D D C F F H ~ ^ ~ V V P 8.dX",
"dX0 2 , , 2 g C C C C F F F I H ~ ~ ~ ~ ^ ^ ^ ^ ] &.&.^ ] O.O.O.O.O.O.O.$.$.%.%.O./ ~ Q $.$.^ ~ H H H Q I I I I I Q Q V V S S 8.dX",
"dX5 1 , , , , , , 1 2 3 6 8 q w w w y d g g g N I z.[ C ~ [ [ O.$.%.&.&.z.x.c.c.O.F D V O.[ F D D D D D V V c c c v c c V V S 8.dX",
"dX4 , , , , , , , , , , 1 1 1 1 1 1 2 3 3 3 3 7 g H y q N D I ~ ^ ] [ $.%.q.z.x.H d i i V c p z v l f f z z z z z v c c c V P 8.dX",
"dX- 6 , , 1 1 , , , , , , 1 1 1 1 1 1 2 2 2 3 6 y w 6 q N D F Q ~ ^ [ [ %.&.q.x.F d y y d i p V V f f f f f z z c b V V S D ~ K dX",
"dX@ 0 = = 2 2 1 1 2 2 6 6 6 6 6 6 2 2 2 3 3 3 3 6 3 6 w N C F I ~ ^ [ [ $.%.&.z.F y y y i i D ~ F N V D D D F F F F I I Q H ~ e dX",
"dX. # @ + $ % - : 4 5 0 0 s s s w 8 6 6 8 6 3 3 6 6 8 w N C C G H ~ ^ [ [ $.$.$.C y w y w w ^ %.~ ~ ^ [ [ { { ' K Z Z k k k e j dX",
"dXdXdXdX. . O O O X X X . . . + $ $ % - - - - : 4 5 5 0 0 0 M M M M M M M M M M 0 0 5 5 4 4 4 4 4 : ; ; ; ; < < > > > * r dXdXdXdX",
"dXdXdXdXdXdXdXdXdXdXdXdXdXdXdXdXdXdX. . O O X X X . . .               o + @ @ @ # # # O O * * & & dXdXdXdXdXdXdXdXdXdXdXdXdXdXdXdX"
};
